<?xml version="1.0" encoding="UTF-8" standalone="no"?>
<!-- Created with Inkscape (http://www.inkscape.org/) -->

<svg
   xmlns:dc="http://purl.org/dc/elements/1.1/"
   xmlns:cc="http://creativecommons.org/ns#"
   xmlns:rdf="http://www.w3.org/1999/02/22-rdf-syntax-ns#"
   xmlns:svg="http://www.w3.org/2000/svg"
   xmlns="http://www.w3.org/2000/svg"
   xmlns:sodipodi="http://sodipodi.sourceforge.net/DTD/sodipodi-0.dtd"
   xmlns:inkscape="http://www.inkscape.org/namespaces/inkscape"
   width="210mm"
   height="297mm"
   viewBox="0 0 210 297"
   version="1.1"
   id="svg24"
   inkscape:version="0.92.4 (5da689c313, 2019-01-14)"
   sodipodi:docname="72o.svg">
  <defs
     id="defs18">
    <inkscape:path-effect
       effect="bspline"
       id="path-effect32"
       is_visible="true"
       weight="33.333333"
       steps="2"
       helper_size="0"
       apply_no_weight="true"
       apply_with_weight="true"
       only_selected="false" />
  </defs>
  <sodipodi:namedview
     id="base"
     pagecolor="#ffffff"
     bordercolor="#666666"
     borderopacity="1.0"
     inkscape:pageopacity="0.0"
     inkscape:pageshadow="2"
     inkscape:zoom="0.35"
     inkscape:cx="400"
     inkscape:cy="560"
     inkscape:document-units="mm"
     inkscape:current-layer="layer1"
     showgrid="false"
     inkscape:window-width="1827"
     inkscape:window-height="1051"
     inkscape:window-x="84"
     inkscape:window-y="-9"
     inkscape:window-maximized="1" />
  <metadata
     id="metadata21">
    <rdf:RDF>
      <cc:Work
         rdf:about="">
        <dc:format>image/svg+xml</dc:format>
        <dc:type
           rdf:resource="http://purl.org/dc/dcmitype/StillImage" />
        <dc:title></dc:title>
      </cc:Work>
    </rdf:RDF>
  </metadata>
  <g
     inkscape:label="Layer 1"
     inkscape:groupmode="layer"
     id="layer1">
    <path
       style="fill:none;stroke:#000000;stroke-width:0.26458332px;stroke-linecap:butt;stroke-linejoin:miter;stroke-opacity:1"
       d="m 94.244972,43.503174 c 1.260186,-0.252778 2.268122,-0.756746 3.02381,-1.007936 0.755688,-0.251191 1.259656,-0.251191 2.519577,-0.251191 1.259921,0 3.275791,0 5.291661,0 2.01588,0 4.03175,0 5.41766,0 1.38592,0 2.14187,0 2.64452,0.125992 0.50264,0.125993 0.75462,0.377975 1.13392,0.503968 0.3793,0.125994 0.88327,0.125994 1.5127,0.252251 0.62943,0.126256 1.38538,0.378239 2.14187,0.503966 0.75648,0.125728 1.51243,0.125728 2.39358,0.377976 0.88115,0.252248 1.88909,0.756217 2.51985,1.007937 0.63075,0.251719 0.88273,0.251719 1.5119,0.503967 0.62916,0.252249 1.6371,0.756218 2.39385,1.007938 0.75674,0.251719 1.26071,0.251719 1.88965,0.503907 0.62894,0.252188 1.38489,0.756155 2.51905,1.386177 1.13415,0.630022 2.64606,1.385977 3.40148,1.888355 0.75542,0.502379 0.75542,0.754366 0.88273,0.881681 0.12732,0.127314 0.37931,0.127314 0.88196,0.505291 0.50264,0.377977 1.25859,1.13393 1.88988,1.511905 0.63128,0.377976 1.13525,0.377976 1.63769,0.755646 0.50244,0.37767 1.00641,1.133623 1.38591,1.511904 0.3795,0.378281 0.63149,0.378281 1.13444,0.630468 0.50295,0.252186 1.2589,0.756159 1.88856,1.259924 0.62965,0.503765 1.13362,1.007733 1.51292,1.259717 0.3793,0.251984 0.63128,0.251984 0.88194,0.377976 0.25066,0.125992 0.50265,0.377979 1.00662,0.881945 0.50396,0.503967 1.25991,1.259917 1.8904,1.764151 0.63049,0.504233 1.13446,0.756218 1.6377,1.259617 0.50323,0.503398 1.0072,1.259352 1.25939,1.762302 0.25219,0.502949 0.25219,0.754933 0.37818,1.00824 0.12599,0.253306 0.37798,0.505289 1.13393,1.261243 0.75595,0.755954 2.01587,2.015875 2.64583,2.770503 0.62996,0.754629 0.62996,1.006613 0.88248,1.260185 0.25251,0.253573 0.75648,0.505557 1.13366,0.882739 0.37718,0.377183 0.62917,0.881149 0.88142,1.259655 0.25224,0.378506 0.50423,0.630488 0.63022,1.133135 0.12599,0.502647 0.12599,1.258598 0.25198,1.763888 0.126,0.505291 0.37798,0.757276 0.50398,1.007937 0.12599,0.25066 0.12599,0.502647 0.25172,0.881416 0.12572,0.37877 0.37771,0.882737 0.75595,1.387234 0.37823,0.504497 0.8822,1.008468 1.25991,1.637634 0.37771,0.629166 0.6297,1.38512 0.88195,1.889881 0.25225,0.504761 0.50423,0.756746 0.75595,1.25992 0.25172,0.503174 0.50371,1.259127 0.75596,1.763889 0.25224,0.504762 0.50423,0.756745 0.63022,1.007406 0.12599,0.250662 0.12599,0.502646 0.25172,0.881417 0.12573,0.37877 0.37771,0.882741 0.50396,1.385914 0.12626,0.503172 0.12626,1.00714 0.25225,1.386439 0.126,0.3793 0.37798,0.631285 0.6297,1.008732 0.25172,0.377447 0.50371,0.881413 0.75569,1.51111 0.25198,0.629696 0.50397,1.385648 0.63022,1.889087 0.12626,0.503439 0.12626,0.755422 0.25225,1.008731 0.12599,0.253308 0.37798,0.50529 0.62973,1.134316 0.25175,0.629027 0.50374,1.636965 0.75596,2.267859 0.25221,0.630894 0.5042,0.882872 0.63019,1.259532 0.12599,0.37665 0.12599,0.88062 0.3777,1.7632 0.25171,0.88259 0.75568,2.14251 1.00793,3.02381 0.25226,0.88131 0.25226,1.38528 0.50398,2.14202 0.25172,0.75675 0.75569,1.76469 1.13367,2.52064 0.37797,0.75595 0.62996,1.25992 0.75621,2.01508 0.12626,0.75516 0.12626,1.76309 0.12626,2.51904 0,0.75596 0,1.25993 0.25178,1.89091 0.25178,0.63097 0.75575,1.38692 1.00794,1.88987 0.25219,0.50295 0.25219,0.75494 0.37792,1.13371 0.12572,0.37876 0.37771,0.88274 0.62969,1.51243 0.25199,0.6297 0.50397,1.38565 0.75622,1.89041 0.25225,0.50476 0.50423,0.75674 0.63022,1.00741 0.12599,0.25066 0.12599,0.50264 0.2518,1.38484 0.12582,0.88219 0.3778,2.3941 0.6297,3.40258 0.2519,1.00848 0.50388,1.51245 0.63014,2.01562 0.12626,0.50318 0.12626,1.00715 0.25199,1.51191 0.12572,0.50476 0.37771,1.00873 0.50396,1.38591 0.12626,0.37718 0.12626,0.62917 0.25199,1.13366 0.12572,0.5045 0.37771,1.26046 0.50396,1.88989 0.12626,0.62943 0.12626,1.13339 0.25225,1.51269 0.126,0.3793 0.37798,0.63129 0.50397,1.13393 0.12599,0.50265 0.12599,1.2586 0.12599,2.39253 0,1.13393 0,2.64583 0,3.90575 0,1.25992 0,2.26786 0.12599,2.89914 0.126,0.63128 0.37798,0.88327 0.50398,1.38591 0.12599,0.50265 0.12599,1.2586 0.12599,2.51852 0,1.25992 0,3.02381 0,5.92163 0,2.89782 0,6.92956 0,13.48115 0,6.55159 0,15.62302 0,21.41865 0,5.79564 0,8.31548 0,10.45734 0,2.14187 0,3.90576 -0.12546,5.16542 -0.12547,1.25965 -0.37745,2.0156 -0.50398,2.64583 -0.12652,0.63022 -0.12652,1.13419 -0.25119,1.51216 -0.12466,0.37798 -0.37665,0.62997 -0.62916,1.00768 -0.25252,0.37771 -0.5045,0.88167 -0.75648,1.38564 -0.25199,0.50397 -0.50397,1.00794 -0.75622,1.6379 -0.25225,0.62996 -0.50423,1.38591 -0.88195,2.26786 -0.37771,0.88194 -0.88168,1.88988 -1.25992,2.77183 -0.37824,0.88194 -0.63022,1.63789 -0.88141,2.01746 -0.25119,0.37956 -0.50318,0.37956 -0.63049,0.75621 -0.12731,0.37665 -0.12731,1.13261 -0.25198,1.63658 -0.12467,0.50396 -0.37666,0.75595 -0.50397,1.13393 -0.12732,0.37797 -0.12732,0.88194 -0.50397,1.5119 -0.37665,0.62996 -1.13261,1.38591 -1.5119,2.01587 -0.3793,0.62996 -0.3793,1.13393 -0.62996,1.6379 -0.25067,0.50397 -0.75464,1.00794 -1.25913,1.76363 -0.5045,0.75568 -1.00847,1.76362 -1.51221,2.64562 -0.50374,0.88201 -1.00772,1.63797 -1.26072,2.14213 -0.253,0.50417 -0.253,0.75616 -0.5034,1.00867 -0.25039,0.25252 -0.75436,0.5045 -1.25928,1.25965 -0.50492,0.75515 -1.00888,2.01507 -1.38618,2.64663 -0.37729,0.63155 -0.62927,0.63155 -0.75658,0.75622 -0.12732,0.12467 -0.12732,0.37666 -0.75596,1.13261 -0.62864,0.75595 -1.88856,2.01587 -2.64451,2.64716 -0.75595,0.63128 -1.00793,0.63128 -1.25992,0.75595 -0.25198,0.12467 -0.50397,0.37665 -0.88168,0.62916 -0.37771,0.25252 -0.88168,0.5045 -1.26045,0.88168 -0.37876,0.37718 -0.63075,0.88115 -0.8822,1.13473 -0.25146,0.25357 -0.50345,0.25357 -0.75596,0.50397 -0.25252,0.25039 -0.5045,0.75436 -0.63128,1.1326 -0.12679,0.37824 -0.12679,0.63022 -0.37719,0.88273 -0.25039,0.25252 -0.75436,0.50451 -1.13313,0.88169 -0.37877,0.37718 -0.63076,0.88115 -1.13393,1.26018 -0.50317,0.37903 -1.25912,0.63102 -1.76336,0.88221 -0.50423,0.25119 -0.75622,0.50318 -1.0082,0.6305 -0.25198,0.12731 -0.50397,0.12731 -0.75595,0.25198 -0.25198,0.12467 -0.50397,0.37665 -0.88194,0.50397 -0.37798,0.12731 -0.88195,0.12731 -1.38592,0.37797 -0.50397,0.25066 -1.00793,0.75463 -1.38591,1.00793 -0.37798,0.25331 -0.62996,0.25331 -1.00793,0.50397 -0.37798,0.25066 -0.88195,0.75463 -1.63767,1.13354 -0.75572,0.37891 -1.76365,0.6309 -2.39438,1.00767 -0.63073,0.37678 -0.88271,0.88075 -1.26015,1.13432 -0.37745,0.25357 -0.88142,0.25357 -1.25939,0.37824 -0.37798,0.12467 -0.62997,0.37666 -0.88195,0.50398 -0.25198,0.12731 -0.50397,0.12731 -0.75596,0.25198 -0.25198,0.12467 -0.50396,0.37664 -0.75594,0.50396 -0.25199,0.12731 -0.50397,0.12731 -0.88195,0.12731 -0.37798,0 -0.88194,0 -1.76388,0 -0.88195,0 -2.14187,0 -3.14981,0 -1.00794,0 -1.76389,0 -2.64557,0.25119 -0.88168,0.25119 -1.88962,0.75516 -2.89782,1.00794 -1.0082,0.25278 -2.01613,0.25278 -2.64609,0.37745 -0.62996,0.12467 -0.88195,0.37666 -1.13393,0.50398 -0.25199,0.12732 -0.50397,0.12732 -0.75595,0.12732 -0.25199,0 -0.50397,0 -1.25992,0 -0.75596,0 -2.01588,0 -4.03175,0 -2.01587,0 -4.7877,0 -8.69345,0 -3.90576,0 -8.94544,0 -12.347226,0 -3.401787,0 -5.165674,0 -6.299602,0 -1.133929,0 -1.637897,0 -2.394647,-0.25172 -0.756749,-0.25172 -1.764684,-0.75569 -2.519841,-1.00794 -0.755156,-0.25225 -1.259124,-0.25225 -1.512431,-0.37957 -0.253307,-0.12732 -0.253307,-0.37931 -0.503967,-0.50398 -0.250661,-0.12467 -0.754632,-0.12467 -1.134193,-0.37718 -0.37956,-0.2525 -0.631545,-0.75647 -1.134457,-1.13366 -0.502912,-0.37718 -1.258864,-0.62917 -2.141391,-1.13324 -0.882526,-0.50408 -1.890462,-1.26003 -2.520635,-1.76416 -0.630172,-0.50412 -0.882154,-0.75611 -1.259602,-1.00782 -0.377447,-0.25172 -0.881416,-0.50371 -1.258599,-0.62996 -0.377182,-0.12626 -0.629166,-0.12626 -0.882473,-0.25225 -0.253307,-0.12599 -0.505289,-0.37798 -0.755952,-0.50397 -0.250663,-0.12599 -0.502647,-0.12599 -1.133929,-0.62996 -0.631282,-0.50396 -1.63922,-1.5119 -2.269446,-2.26839 -0.630226,-0.75648 -0.882205,-1.26044 -1.132603,-1.5119 -0.250397,-0.25146 -0.502381,-0.25146 -0.755689,-0.37745 -0.253308,-0.12599 -0.50529,-0.37798 -0.757539,-0.75648 -0.252249,-0.3785 -0.504234,-0.88247 -0.880623,-1.13393 -0.376388,-0.25145 -0.880355,-0.25145 -1.385648,-0.50344 -0.505294,-0.25198 -1.009261,-0.75595 -1.385913,-1.00794 -0.376652,-0.25198 -0.628636,-0.25198 -0.882208,-0.50449 -0.253571,-0.25251 -0.505557,-0.75648 -0.881945,-1.00794 -0.376389,-0.25145 -0.880356,-0.25145 -1.133663,-0.37876 -0.253307,-0.12732 -0.253307,-0.37931 -0.379299,-0.62997 -0.125993,-0.25066 -0.377975,-0.50264 -0.629961,-0.75463 -0.251985,-0.25198 -0.503968,-0.50397 -0.754629,-0.62996 -0.250662,-0.12599 -0.502646,-0.12599 -0.629961,-0.3793 -0.127315,-0.25331 -0.127315,-0.75727 -0.505289,-1.38591 -0.377975,-0.62864 -1.133928,-1.38459 -1.511906,-1.88988 -0.377977,-0.50529 -0.377977,-0.75728 -0.503968,-1.00794 -0.125992,-0.25066 -0.377977,-0.50264 -0.630226,-0.88115 -0.252248,-0.3785 -0.504234,-0.88247 -0.881946,-1.38591 -0.377713,-0.50344 -0.881676,-1.00741 -1.385909,-1.76389 -0.504234,-0.75648 -1.0082,-1.76441 -1.38459,-2.26786 -0.376391,-0.50344 -0.628375,-0.50344 -0.75569,-0.63075 -0.127315,-0.12732 -0.127315,-0.3793 -0.253571,-0.75648 -0.126256,-0.37718 -0.378241,-0.88115 -0.630226,-1.38512 -0.251984,-0.50397 -0.503969,-1.00794 -0.755688,-1.38539 -0.25172,-0.37744 -0.503702,-0.62943 -0.629694,-1.51269 -0.125993,-0.88327 -0.125993,-2.39517 -0.377447,-3.27553 -0.251454,-0.88036 -0.755424,-1.13234 -1.134193,-1.51111 -0.37877,-0.37877 -0.630756,-0.88274 -1.008671,-1.51248 -0.377915,-0.62973 -0.881881,-1.38569 -1.133662,-1.89067 -0.251781,-0.50499 -0.251781,-0.75697 -0.378037,-1.13415 -0.126255,-0.37718 -0.37824,-0.88115 -0.756225,-1.76325 -0.377986,-0.8821 -0.881954,-2.14202 -1.133665,-2.89862 -0.251711,-0.75659 -0.251711,-1.00857 -0.377703,-1.25923 -0.125992,-0.25066 -0.37798,-0.50265 -0.630228,-0.88116 -0.252248,-0.3785 -0.504228,-0.88246 -0.756213,-1.51269 -0.251984,-0.63022 -0.503971,-1.38618 -0.755894,-2.39434 -0.251923,-1.00816 -0.503906,-2.26808 -1.25992,-4.15747 -0.756013,-1.88939 -2.015933,-4.40923 -2.771886,-6.0474 -0.755953,-1.63816 -1.007936,-2.39411 -1.259919,-3.02381 -0.251984,-0.62969 -0.503969,-1.13366 -0.755922,-1.89002 -0.251953,-0.75635 -0.503938,-1.76429 -0.881885,-2.64561 -0.377946,-0.88131 -0.881913,-1.63727 -1.133694,-2.26824 -0.251781,-0.63098 -0.251781,-1.13495 -0.251781,-1.76491 0,-0.62996 0,-1.38591 0,-2.01587 0,-0.62996 0,-1.13393 -0.252247,-2.14134 -0.252248,-1.0074 -0.756218,-2.51931 -1.134109,-4.0315 -0.377891,-1.51218 -0.629876,-3.02409 -1.007946,-4.40961 -0.378071,-1.38552 -0.882038,-2.64544 -1.133749,-3.65402 -0.251711,-1.00857 -0.251711,-1.76453 -0.377907,-2.77216 -0.126196,-1.00763 -0.37818,-2.26755 -0.756216,-3.65324 -0.378037,-1.38568 -0.882006,-2.89759 -1.133726,-3.78007 -0.251719,-0.88247 -0.251719,-1.13445 -0.251719,-1.8904 0,-0.75596 0,-2.01588 -0.126257,-2.89703 -0.126258,-0.88115 -0.378242,-1.38512 -0.630224,-2.01534 -0.251983,-0.63022 -0.50397,-1.38618 -0.629697,-2.64663 -0.125727,-1.26045 -0.125727,-3.02434 -0.125727,-5.67017 0,-2.64583 0,-6.17361 0,-10.58333 0,-4.40973 0,-9.70139 0,-12.97718 0,-3.2758 0,-4.53572 0,-5.66965 0,-1.13393 0,-2.14186 0,-2.77182 0,-0.62996 0,-0.88195 0.126785,-1.26019 0.126786,-0.37824 0.378772,-0.88221 0.50397,-1.25992 0.125198,-0.37771 0.125198,-0.6297 0.251985,-1.00794 0.126786,-0.37824 0.37877,-0.88221 0.503968,-1.25992 0.125197,-0.37771 0.125197,-0.62969 0.251718,-1.13392 0.126522,-0.50424 0.378505,-1.26019 0.75697,-2.01608 0.378465,-0.7559 0.882432,-1.51185 1.133399,-2.1416 0.250967,-0.62976 0.250967,-1.13373 0.504539,-1.51118 0.253572,-0.37744 0.757543,-0.62943 1.386342,-2.1421 0.628799,-1.512682 1.384751,-4.284509 2.26759,-6.174145 0.88284,-1.889635 1.890778,-2.897574 2.898287,-4.28373 1.007509,-1.386157 2.015446,-3.150047 2.645039,-4.409987 0.629593,-1.259939 0.881577,-2.015894 1.260042,-2.771785 0.378464,-0.755891 0.882433,-1.511844 1.1334,-2.015609 0.250966,-0.503764 0.250966,-0.755747 0.378281,-1.007731 0.127315,-0.251984 0.379299,-0.503968 0.630754,-0.882209 0.251456,-0.378242 0.50344,-0.882209 0.755953,-1.259921 0.252514,-0.377712 0.504498,-0.629695 0.881944,-1.259921 0.377447,-0.630225 0.881415,-1.638161 1.259921,-2.267858 0.378506,-0.629696 0.63049,-0.88168 0.755159,-1.133664 0.124669,-0.251984 0.124669,-0.503967 0.251984,-0.755951 0.127315,-0.251984 0.379299,-0.503968 0.630489,-1.008202 0.25119,-0.504233 0.503174,-1.260185 0.755951,-1.636574 0.252778,-0.376388 0.504762,-0.376388 0.755953,-0.755951 0.251192,-0.379563 0.503176,-1.135517 1.133929,-2.017196 0.630754,-0.881679 1.638692,-1.889618 2.141337,-2.519577 0.502644,-0.62996 0.502644,-0.881944 0.629959,-1.006613 0.127315,-0.124669 0.379299,-0.124669 0.631284,-0.251984 0.251984,-0.127316 0.503968,-0.3793 0.755953,-0.631284 0.251984,-0.251985 0.503968,-0.503969 0.881638,-1.00814 0.37767,-0.504171 0.881639,-1.260125 1.259921,-1.636574 0.378282,-0.37645 0.630266,-0.37645 1.134234,-0.755749 0.503968,-0.379299 1.259919,-1.13525 1.763359,-1.765476 0.50344,-0.630225 0.755424,-1.134193 1.134193,-1.511376 0.37877,-0.377182 0.882738,-0.629167 1.26045,-0.881681 0.377712,-0.252514 0.629697,-0.504497 1.007673,-0.629166 0.377976,-0.124669 0.881943,-0.124669 1.511903,-0.503968 0.629961,-0.379299 1.385913,-1.135251 1.889881,-1.511905 0.503968,-0.376653 0.755952,-0.376653 1.134194,-0.503439 0.378242,-0.126787 0.882209,-0.37877 1.385912,-0.757275 0.503704,-0.378504 1.007672,-0.882472 1.385649,-1.133135 0.377977,-0.250662 0.629961,-0.250662 1.007937,-0.503968 0.377975,-0.253307 0.881943,-0.757275 1.385912,-1.007936 0.503969,-0.250661 1.007937,-0.250661 1.6381,-0.503663 0.630163,-0.253001 1.386118,-0.756972 1.889882,-1.007938 0.503764,-0.250966 0.755748,-0.250966 1.007732,-0.378281 0.251984,-0.127315 0.503967,-0.379298 0.755953,-0.503967 0.251985,-0.12467 0.503969,-0.12467 0.628638,-0.251984 0.124669,-0.127315 0.124669,-0.379299 0.251984,-0.503968 0.127314,-0.124669 0.379298,-0.124669 0.631282,-0.251984 0.251984,-0.127315 0.503968,-0.379301 1.007937,-0.50397 0.503969,-0.124669 1.259921,-0.124669 1.763889,-0.124669 0.503967,0 0.755951,0 1.134192,-0.126786 0.378242,-0.126786 0.88221,-0.37877 1.385914,-0.503968 0.503703,-0.125198 1.00767,-0.125198 2.015607,-0.125198 1.007937,0 2.519843,0 3.779764,0 1.25992,0 2.267856,0 2.897817,-0.127315 0.62996,-0.127316 0.881945,-0.379299 1.133928,-0.503968 0.251984,-0.124669 0.503968,-0.124669 1.385913,-0.124669 0.881945,0 2.393848,0 3.654033,-0.252778 z"
       id="path30"
       inkscape:connector-curvature="0"
       inkscape:path-effect="#path-effect32"
       inkscape:original-d="m 94.494047,43.755952 c 1.010582,-0.506613 2.018517,-1.010584 3.023809,-1.511905 0.506614,-0.0026 1.010582,-0.0026 1.511904,0 2.01852,-0.0026 4.03439,-0.0026 6.04762,0 2.01852,-0.0026 4.03439,-0.0026 6.04762,0 0.7586,-0.0026 1.51455,-0.0026 2.26786,0 0.25463,0.249338 0.50661,0.501321 0.75595,0.755954 0.50661,-0.0026 1.01058,-0.0026 1.5119,0 0.7586,0.249338 1.51455,0.501322 2.26786,0.755951 0.7586,-0.0026 1.51455,-0.0026 2.26786,0 1.01058,0.501322 2.01852,1.00529 3.02381,1.511904 0.25463,-0.0026 0.50661,-0.0026 0.75595,0 1.01058,0.501324 2.01852,1.005292 3.02381,1.511905 0.50661,-0.0026 1.01058,-0.0026 1.5119,0 0.7586,0.501322 1.51455,1.00529 2.26786,1.511906 1.51455,0.753306 3.02646,1.509258 4.53571,2.267855 0.003,0.249338 0.003,0.501325 0,0.755954 0.25463,-0.0026 0.50662,-0.0026 0.75596,0 0.7586,0.753306 1.51455,1.509258 2.26785,2.267858 0.50662,-0.0026 1.01059,-0.0026 1.51191,0 0.50661,0.753306 1.01058,1.509257 1.5119,2.267855 0.25463,-0.0026 0.50662,-0.0026 0.75596,0 0.75859,0.501324 1.51455,1.005292 2.26785,1.511906 0.50662,0.501322 1.01059,1.005289 1.51191,1.511906 0.25463,-0.0026 0.50661,-0.0026 0.75595,0 0.25463,0.249338 0.50662,0.501321 0.75595,0.755951 0.7586,0.753306 1.51455,1.509258 2.26786,2.267858 0.50661,0.249338 1.01058,0.501322 1.5119,0.755951 0.50662,0.753306 1.01059,1.50926 1.51191,2.267858 0.003,0.249338 0.003,0.501322 0,0.755951 0.25463,0.249338 0.50661,0.501322 0.75595,0.755952 1.26257,1.257276 2.52249,2.517196 3.77976,3.779763 0.003,0.249338 0.003,0.501322 0,0.755952 0.50662,0.249338 1.01059,0.501322 1.51191,0.755952 0.25463,0.501324 0.50661,1.005292 0.75595,1.511905 0.25463,0.249339 0.50661,0.501322 0.75595,0.755952 0.003,0.753309 0.003,1.50926 0,2.267858 0.25463,0.249338 0.50662,0.501322 0.75596,0.755951 0.003,0.249338 0.003,0.501325 0,0.755954 0.25463,0.501322 0.50661,1.00529 0.75595,1.511904 0.50661,0.501322 1.01058,1.005292 1.5119,1.511906 0.25463,0.753305 0.50662,1.509257 0.75595,2.267857 0.25463,0.249338 0.50662,0.501322 0.75596,0.755952 0.25463,0.753305 0.50661,1.50926 0.75595,2.267857 0.25463,0.249338 0.50661,0.501322 0.75595,0.755952 0.003,0.249338 0.003,0.501322 0,0.755951 0.25463,0.501325 0.50662,1.005293 0.75595,1.511906 0.003,0.501322 0.003,1.00529 0,1.511906 0.25463,0.249338 0.50662,0.501322 0.75596,0.755952 0.25463,0.501322 0.50661,1.005289 0.75595,1.511903 0.25463,0.753308 0.50661,1.50926 0.75595,2.267858 0.003,0.249338 0.003,0.501321 0,0.755954 0.25463,0.249338 0.50661,0.501322 0.75595,0.755951 0.25463,1.00529 0.50662,2.013228 0.75596,3.023809 0.25463,0.249339 0.50661,0.501323 0.75595,0.755953 0.003,0.50132 0.003,1.00529 0,1.5119 0.50661,1.25728 1.01058,2.5172 1.5119,3.77977 0.003,0.50132 0.003,1.00529 0,1.5119 0.50662,1.00529 1.01059,2.01323 1.51191,3.02381 0.25463,0.50132 0.50661,1.00529 0.75595,1.51191 0.003,1.00529 0.003,2.01322 0,3.02381 0.003,0.50132 0.003,1.00529 0,1.5119 0.50661,0.75331 1.01058,1.50926 1.51191,2.26786 0.003,0.24933 0.003,0.50132 0,0.75595 0.25462,0.50132 0.50661,1.00529 0.75595,1.5119 0.25463,0.75331 0.50661,1.50926 0.75595,2.26786 0.25463,0.24934 0.50661,0.50132 0.75595,0.75595 0.003,0.24934 0.003,0.50132 0,0.75595 0.25463,1.50926 0.50662,3.02117 0.75595,4.53572 0.25463,0.50132 0.50662,1.00529 0.75596,1.51191 0.003,0.50132 0.003,1.00529 0,1.5119 0.25463,0.50132 0.50661,1.00529 0.75595,1.5119 0.003,0.24934 0.003,0.50133 0,0.75596 0.25463,0.7533 0.50661,1.50926 0.75595,2.26785 0.003,0.50133 0.003,1.00529 0,1.51191 0.25463,0.24934 0.50662,0.50132 0.75595,0.75595 0.003,0.75331 0.003,1.50926 0,2.26786 0.003,1.50926 0.003,3.02116 0,4.53571 0.003,1.00529 0.003,2.01323 0,3.02381 0.25463,0.24934 0.50662,0.50132 0.75596,0.75595 0.003,0.75331 0.003,1.50926 0,2.26786 0.003,1.76124 0.003,3.52513 0,5.29167 0.003,4.0291 0.003,8.06084 0,12.09523 0.003,9.06879 0.003,18.14022 0,27.21429 0.003,2.5172 0.003,5.03704 0,7.55952 0.003,1.76125 0.003,3.52514 0,5.29167 -0.24934,0.75331 -0.50133,1.50926 -0.75596,2.26786 0.003,0.50132 0.003,1.00529 0,1.5119 -0.24933,0.24934 -0.50132,0.50133 -0.75595,0.75596 -0.24934,0.50132 -0.50132,1.00528 -0.75595,1.5119 -0.24934,0.50132 -0.50132,1.00529 -0.75595,1.5119 -0.24934,0.75331 -0.50133,1.50926 -0.75596,2.26786 -0.50132,1.00529 -1.00529,2.01323 -1.5119,3.02381 -0.24934,0.75331 -0.50132,1.50926 -0.75595,2.26786 -0.24934,-0.003 -0.50133,-0.003 -0.75595,0 0.003,0.7533 0.003,1.50926 0,2.26786 -0.24934,0.24933 -0.50133,0.50132 -0.75596,0.75595 0.003,0.50132 0.003,1.00529 0,1.5119 -0.7533,0.75331 -1.50926,1.50926 -2.26785,2.26786 0.003,0.50132 0.003,1.00529 0,1.5119 -0.50133,0.50133 -1.0053,1.0053 -1.51191,1.51191 -0.50132,1.00529 -1.00529,2.01323 -1.5119,3.02381 -0.50133,0.7533 -1.0053,1.50926 -1.51191,2.26786 0.003,0.24933 0.003,0.50132 0,0.75595 -0.50132,0.24934 -1.00529,0.50132 -1.5119,0.75595 -0.50133,1.25728 -1.00529,2.5172 -1.51191,3.77976 -0.24934,-0.003 -0.50132,-0.003 -0.75595,0 0.003,0.24934 0.003,0.50133 0,0.75595 -1.25728,1.25728 -2.5172,2.5172 -3.77976,3.77977 -0.24934,-0.003 -0.50132,-0.003 -0.75595,0 -0.24934,0.24934 -0.50133,0.50132 -0.75596,0.75595 -0.50132,0.24934 -1.00529,0.50132 -1.5119,0.75595 -0.24934,0.50132 -0.50132,1.00529 -0.75595,1.51191 -0.24934,-0.003 -0.50133,-0.003 -0.75596,0 -0.24934,0.50132 -0.50132,1.00529 -0.75595,1.5119 0.003,0.24934 0.003,0.50132 0,0.75595 -0.50132,0.24934 -1.00529,0.50133 -1.5119,0.75596 -0.24934,0.50132 -0.50133,1.00529 -0.75596,1.5119 -0.7533,0.24934 -1.50925,0.50132 -2.26785,0.75595 -0.24934,0.24934 -0.50133,0.50133 -0.75596,0.75596 -0.24933,-0.003 -0.50132,-0.003 -0.75595,0 -0.24934,0.24933 -0.50132,0.50132 -0.75595,0.75595 -0.50132,-0.003 -1.00529,-0.003 -1.51191,0 -0.50132,0.50132 -1.00528,1.00529 -1.5119,1.5119 -0.24934,-0.003 -0.50132,-0.003 -0.75595,0 -0.50132,0.50132 -1.00529,1.00529 -1.51191,1.51191 -1.00529,0.24933 -2.01322,0.50132 -3.02381,0.75595 -0.24934,0.50132 -0.50132,1.00529 -0.75595,1.5119 -0.50132,-0.003 -1.00529,-0.003 -1.5119,0 -0.24934,0.24934 -0.50133,0.50133 -0.75596,0.75596 -0.24933,-0.003 -0.50132,-0.003 -0.75595,0 -0.24934,0.24934 -0.50132,0.50131 -0.75595,0.75594 -0.24934,-0.003 -0.50132,-0.003 -0.75595,0 -0.50133,-0.003 -1.00529,-0.003 -1.51191,0 -1.25727,-0.003 -2.51719,-0.003 -3.77976,0 -0.75331,-0.003 -1.50926,-0.003 -2.26786,0 -1.00529,0.50133 -2.01322,1.00531 -3.02381,1.51191 -1.00529,-0.003 -2.01322,-0.003 -3.02381,0 -0.24933,0.24934 -0.50132,0.50133 -0.75595,0.75597 -0.24934,-0.003 -0.50132,-0.003 -0.75595,0 -0.24934,-0.003 -0.50132,-0.003 -0.75595,0 -1.25728,-0.003 -2.5172,-0.003 -3.77976,0 -2.76918,-0.003 -5.54101,-0.003 -8.31548,0 -5.03704,-0.003 -10.07672,-0.003 -15.119049,0 -1.761244,-0.003 -3.525131,-0.003 -5.291666,0 -0.501322,-0.003 -1.00529,-0.003 -1.511904,0 -1.005292,-0.50663 -2.013227,-1.0106 -3.023811,-1.51191 -0.501322,-0.003 -1.00529,-0.003 -1.511904,0 0.0026,-0.25464 0.0026,-0.50663 0,-0.75597 -0.501321,-0.003 -1.005292,-0.003 -1.511905,0 -0.249338,-0.5066 -0.501322,-1.01057 -0.755952,-1.5119 -0.753306,-0.25463 -1.50926,-0.50661 -2.267857,-0.75595 -1.00529,-0.7586 -2.013228,-1.51455 -3.02381,-2.26786 -0.249338,-0.25463 -0.501322,-0.50661 -0.755951,-0.75595 -0.501322,-0.25463 -1.005293,-0.50661 -1.511906,-0.75595 -0.249338,-0.003 -0.501322,-0.003 -0.755952,0 -0.249338,-0.25463 -0.501322,-0.50661 -0.755951,-0.75595 -0.249341,-0.003 -0.501325,-0.003 -0.755955,0 -1.005289,-1.01058 -2.013225,-2.01852 -3.023809,-3.02381 -0.249338,-0.50662 -0.501322,-1.01058 -0.755951,-1.51191 -0.249338,-0.003 -0.501322,-0.003 -0.755952,0 -0.249341,-0.25463 -0.501324,-0.50661 -0.755954,-0.75595 -0.249338,-0.50661 -0.501322,-1.01058 -0.755952,-1.5119 -0.501322,-0.003 -1.005289,-0.003 -1.511906,0 -0.501322,-0.50662 -1.005289,-1.01059 -1.511903,-1.51191 -0.249338,-0.003 -0.501322,-0.003 -0.755952,0 -0.24934,-0.50661 -0.501324,-1.01058 -0.755954,-1.5119 -0.501322,-0.003 -1.005289,-0.003 -1.511903,0 0.0026,-0.25463 0.0026,-0.50662 0,-0.75596 -0.249338,-0.25463 -0.501322,-0.50661 -0.755954,-0.75595 -0.249338,-0.25463 -0.501322,-0.50661 -0.755952,-0.75595 -0.249338,-0.003 -0.501322,-0.003 -0.755952,0 0.0026,-0.50662 0.0026,-1.01058 0,-1.51191 -0.753305,-0.75859 -1.50926,-1.51454 -2.267857,-2.26785 0.0026,-0.25463 0.0026,-0.50662 0,-0.75595 -0.249338,-0.25463 -0.501322,-0.50662 -0.755952,-0.75596 -0.249338,-0.50661 -0.501322,-1.01058 -0.755954,-1.5119 -0.501322,-0.50662 -1.00529,-1.01058 -1.511903,-1.51191 -0.501322,-1.01058 -1.005292,-2.01851 -1.511906,-3.02381 -0.249338,-0.003 -0.501322,-0.003 -0.755952,0 0.0026,-0.25463 0.0026,-0.50661 0,-0.75595 -0.249338,-0.50661 -0.501322,-1.01058 -0.755951,-1.5119 -0.249338,-0.50662 -0.501322,-1.01059 -0.755954,-1.51191 -0.249339,-0.25463 -0.501322,-0.50661 -0.755952,-0.75595 0.0026,-1.51455 0.0026,-3.02645 0,-4.53571 -0.501322,-0.25463 -1.00529,-0.50662 -1.511903,-0.75596 -0.249341,-0.50661 -0.501325,-1.01058 -0.755955,-1.5119 -0.501321,-0.7586 -1.005289,-1.51455 -1.511903,-2.26786 0.0026,-0.25463 0.0026,-0.50661 0,-0.75595 -0.249338,-0.50661 -0.501322,-1.01058 -0.755954,-1.51191 -0.501322,-1.26256 -1.00529,-2.52248 -1.511903,-3.77976 0.0026,-0.25463 0.0026,-0.50661 0,-0.75595 -0.249338,-0.25463 -0.501322,-0.50662 -0.755952,-0.75595 -0.249341,-0.50662 -0.501324,-1.01058 -0.755954,-1.51191 -0.249338,-0.75859 -0.501322,-1.51455 -0.755952,-2.26785 -0.249338,-1.26257 -0.501322,-2.52249 -0.755951,-3.77976 -1.257277,-2.52249 -2.517196,-5.04233 -3.779764,-7.55953 -0.249338,-0.7586 -0.501322,-1.51455 -0.755951,-2.26786 -0.249338,-0.50661 -0.501322,-1.01058 -0.755952,-1.5119 -0.249338,-1.01058 -0.501322,-2.01852 -0.755954,-3.02381 -0.501322,-0.7586 -1.00529,-1.51455 -1.511904,-2.26786 0.0026,-0.50661 0.0026,-1.01058 0,-1.5119 0.0026,-0.7586 0.0026,-1.51455 0,-2.26786 0.0026,-0.50661 0.0026,-1.01058 0,-1.51191 -0.501321,-1.51454 -1.005292,-3.02645 -1.511905,-4.53571 -0.249338,-1.51455 -0.501322,-3.02646 -0.755952,-4.53571 -0.501322,-1.26257 -1.005291,-2.52249 -1.511905,-3.77977 0.0026,-0.75859 0.0026,-1.51455 0,-2.26785 -0.249338,-1.26257 -0.501322,-2.52249 -0.755952,-3.77976 -0.501322,-1.51455 -1.005291,-3.02646 -1.511905,-4.53572 0.0026,-0.25463 0.0026,-0.50661 0,-0.75595 0.0026,-1.26257 0.0026,-2.52249 0,-3.77976 -0.249338,-0.50662 -0.501322,-1.01059 -0.755952,-1.51191 -0.249338,-0.75859 -0.501323,-1.51455 -0.755953,-2.26785 0.0026,-1.76654 0.0026,-3.53043 0,-5.29167 0.0026,-3.53042 0.0026,-7.0582 0,-10.58333 0.0026,-5.29432 0.0026,-10.58598 0,-15.875 0.0026,-1.26257 0.0026,-2.52249 0,-3.77977 0.0026,-1.01058 0.0026,-2.01851 0,-3.0238 0.0026,-0.25463 0.0026,-0.50662 0,-0.75596 0.25463,-0.50661 0.506615,-1.01058 0.755953,-1.5119 0.0026,-0.25463 0.0026,-0.50662 0,-0.75595 0.25463,-0.50662 0.506614,-1.01059 0.755952,-1.51191 0.0026,-0.25463 0.0026,-0.50661 0,-0.75595 0.25463,-0.7586 0.506614,-1.51455 0.755953,-2.26786 0.506613,-0.7586 1.010582,-1.51455 1.511904,-2.26786 0.0026,-0.50661 0.0026,-1.01058 0,-1.5119 0.506614,-0.25463 1.010583,-0.50662 1.511905,-0.75595 0.758597,-2.774474 1.514552,-5.5463 2.267857,-8.315479 1.010582,-1.010581 2.01852,-2.01852 3.02381,-3.023809 1.010581,-1.766536 2.018519,-3.530426 3.023809,-5.291667 0.254629,-0.758597 0.506613,-1.514552 0.755951,-2.267857 0.506617,-0.758598 1.010584,-1.514552 1.511906,-2.267858 0.0026,-0.25463 0.0026,-0.506613 0,-0.755951 0.25463,-0.25463 0.506614,-0.506614 0.755952,-0.755952 0.25463,-0.506616 0.506613,-1.010584 0.755954,-1.511906 0.25463,-0.25463 0.506614,-0.506613 0.755952,-0.755952 0.506613,-1.010583 1.010581,-2.018519 1.511903,-3.023809 0.254632,-0.254632 0.506616,-0.506616 0.755954,-0.755954 0.0026,-0.25463 0.0026,-0.506613 0,-0.755952 0.25463,-0.254629 0.506614,-0.506613 0.755952,-0.755951 0.25463,-0.7586 0.506613,-1.514552 0.755951,-2.267858 0.25463,-0.0026 0.506614,-0.0026 0.755955,0 0.254629,-0.758597 0.506613,-1.514551 0.755951,-2.267857 1.010582,-1.010581 2.01852,-2.01852 3.023809,-3.023809 0.0026,-0.25463 0.0026,-0.506614 0,-0.755952 0.25463,-0.0026 0.506614,-0.0026 0.755952,0 0.25463,-0.254632 0.506614,-0.506616 0.755954,-0.755954 0.25463,-0.25463 0.506614,-0.506614 0.755952,-0.755952 0.506613,-0.758597 1.010581,-1.514551 1.511903,-2.267857 0.254632,-0.0026 0.506616,-0.0026 0.755954,0 0.758598,-0.758598 1.514549,-1.514549 2.267858,-2.267858 0.25463,-0.506613 0.506613,-1.010581 0.755951,-1.511903 0.506614,-0.25463 1.010582,-0.506616 1.511904,-0.755954 0.254632,-0.25463 0.506616,-0.506614 0.755954,-0.755952 0.506614,-0.0026 1.010581,-0.0026 1.511903,0 0.7586,-0.758597 1.514552,-1.514549 2.267858,-2.267857 0.254629,-0.0026 0.506613,-0.0026 0.755951,0 0.506617,-0.25463 1.010584,-0.506614 1.511906,-0.755952 0.506614,-0.506613 1.010582,-1.010581 1.511906,-1.511906 0.25463,-0.0026 0.506614,-0.0026 0.755952,0 0.506613,-0.506613 1.010581,-1.010581 1.511903,-1.511903 0.506616,-0.0026 1.010584,-0.0026 1.511906,0 0.758597,-0.506614 1.514552,-1.010584 2.267857,-1.511906 0.25463,-0.0026 0.506614,-0.0026 0.755952,0 0.25463,-0.25463 0.506613,-0.506613 0.755952,-0.755952 0.254632,-0.0026 0.506616,-0.0026 0.755954,0 0.0026,-0.254629 0.0026,-0.506613 0,-0.755951 0.254629,-0.0026 0.506613,-0.0026 0.755951,0 0.25463,-0.25463 0.506614,-0.506616 0.755952,-0.755954 0.7586,-0.0026 1.514552,-0.0026 2.267858,0 0.254629,-0.0026 0.506613,-0.0026 0.755951,0 0.506616,-0.25463 1.010584,-0.506614 1.511906,-0.755952 0.506614,-0.0026 1.010581,-0.0026 1.511906,0 1.514549,-0.0026 3.026455,-0.0026 4.535712,0 1.010584,-0.0026 2.01852,-0.0026 3.023809,0 0.254633,-0.25463 0.506617,-0.506614 0.755955,-0.755952 0.254629,-0.0026 0.506613,-0.0026 0.755951,0 1.514552,-0.0026 3.026455,-0.0026 4.535715,0 z" />
  </g>
</svg>
