<?xml version="1.0" encoding="UTF-8" standalone="no"?>
<!-- Created with Inkscape (http://www.inkscape.org/) -->

<svg
   xmlns:dc="http://purl.org/dc/elements/1.1/"
   xmlns:cc="http://creativecommons.org/ns#"
   xmlns:rdf="http://www.w3.org/1999/02/22-rdf-syntax-ns#"
   xmlns:svg="http://www.w3.org/2000/svg"
   xmlns="http://www.w3.org/2000/svg"
   xmlns:sodipodi="http://sodipodi.sourceforge.net/DTD/sodipodi-0.dtd"
   xmlns:inkscape="http://www.inkscape.org/namespaces/inkscape"
   width="210mm"
   height="297mm"
   viewBox="0 0 210 297"
   version="1.1"
   id="svg8"
   inkscape:version="0.92.4 (5da689c313, 2019-01-14)"
   sodipodi:docname="72r.svg">
  <defs
     id="defs2">
    <inkscape:path-effect
       effect="bspline"
       id="path-effect16"
       is_visible="true"
       weight="33.333333"
       steps="2"
       helper_size="0"
       apply_no_weight="true"
       apply_with_weight="true"
       only_selected="false" />
  </defs>
  <sodipodi:namedview
     id="base"
     pagecolor="#ffffff"
     bordercolor="#666666"
     borderopacity="1.0"
     inkscape:pageopacity="0.0"
     inkscape:pageshadow="2"
     inkscape:zoom="0.35"
     inkscape:cx="400"
     inkscape:cy="560"
     inkscape:document-units="mm"
     inkscape:current-layer="layer1"
     showgrid="false"
     inkscape:window-width="1827"
     inkscape:window-height="1051"
     inkscape:window-x="84"
     inkscape:window-y="-9"
     inkscape:window-maximized="1" />
  <metadata
     id="metadata5">
    <rdf:RDF>
      <cc:Work
         rdf:about="">
        <dc:format>image/svg+xml</dc:format>
        <dc:type
           rdf:resource="http://purl.org/dc/dcmitype/StillImage" />
        <dc:title></dc:title>
      </cc:Work>
    </rdf:RDF>
  </metadata>
  <g
     inkscape:label="Layer 1"
     inkscape:groupmode="layer"
     id="layer1">
    <path
       style="fill:none;stroke:#000000;stroke-width:0.26458332px;stroke-linecap:butt;stroke-linejoin:miter;stroke-opacity:1"
       d="m 39.309524,263.73809 c 0,0 3.023809,-238.880948 3.655296,-239.007245 0.631487,-0.126298 1.891407,-0.378282 2.89914,-0.503968 1.007733,-0.125687 1.763686,-0.125687 2.897614,-0.125687 1.133929,0 2.645834,0 5.921627,0 3.275794,0 8.315477,0 15.119048,0 6.803571,0 15.371032,0 20.788691,0 5.417658,0 7.685515,0 9.197417,0 1.511903,0 2.267863,0 2.771833,0 0.50396,0 0.75595,0 1.00793,0 0.25199,0 0.50397,0 0.75463,0.125992 0.25066,0.125993 0.50265,0.377975 0.62864,0.628637 0.12599,0.250662 0.12599,0.502646 0.3793,0.629961 0.25331,0.127315 0.75727,0.127315 1.51243,0.379563 0.75516,0.252249 1.76309,0.756214 2.51984,1.007936 0.75675,0.251721 1.26072,0.251721 1.51138,0.37639 0.25066,0.124669 0.25066,0.376653 0.50396,0.503968 0.25331,0.127315 0.75728,0.127315 1.00794,0.251984 0.25066,0.12467 0.25066,0.376654 0.50318,0.630226 0.25251,0.253573 0.75648,0.505557 1.00794,0.755952 0.25145,0.250396 0.25145,0.502381 0.37744,0.755688 0.12599,0.253307 0.37798,0.50529 0.75648,0.75754 0.37851,0.25225 0.88247,0.50423 1.25992,0.755951 0.37745,0.251721 0.62944,0.503703 0.88274,0.629696 0.25331,0.125993 0.50529,0.125993 1.00794,0.503969 0.50264,0.377977 1.2586,1.133928 1.88908,1.63816 0.63049,0.504233 1.13446,0.756218 1.6377,1.259618 0.50323,0.503399 1.0072,1.259351 1.38671,1.637632 0.3795,0.37828 0.63148,0.37828 0.75615,0.628942 0.12467,0.250661 0.12467,0.754629 0.25066,1.133928 0.12599,0.379299 0.37798,0.631282 0.75595,1.00926 0.37798,0.377978 0.88195,0.881946 1.26125,1.133929 0.3793,0.251983 0.63128,0.251983 0.75595,0.376652 0.12467,0.12467 0.12467,0.376654 0.37718,0.630225 0.25251,0.253571 0.75648,0.505556 1.25972,1.008956 0.50323,0.503399 1.0072,1.259351 1.63721,2.141388 0.63001,0.882038 1.38596,1.889972 1.88982,2.771336 0.50386,0.881363 0.75585,1.637315 1.13462,2.142341 0.37876,0.505026 0.88273,0.757011 1.13419,1.007408 0.25145,0.250396 0.25145,0.502381 0.37744,0.755687 0.126,0.253307 0.37798,0.505292 0.75596,0.883268 0.37798,0.377975 0.88194,0.881945 1.25965,1.385384 0.37771,0.503439 0.6297,1.00741 0.88327,1.259921 0.25357,0.252512 0.50556,0.252512 0.88195,1.00767 0.37639,0.755159 0.88035,2.267065 1.38511,3.150066 0.50476,0.883002 1.00873,1.134986 1.51217,1.512698 0.50345,0.377712 1.00741,0.881682 1.38512,1.385121 0.37771,0.503439 0.6297,1.007406 1.00774,1.637592 0.37803,0.630185 0.882,1.386134 1.13419,1.889085 0.25219,0.502952 0.25219,0.754936 0.37818,1.008243 0.12599,0.253307 0.37798,0.50529 0.62996,0.757275 0.25198,0.251985 0.50397,0.503968 0.62996,1.006614 0.12599,0.502646 0.12599,1.258598 0.25198,1.763889 0.12599,0.505291 0.37798,0.757279 0.50397,1.007939 0.12599,0.250659 0.12599,0.502643 0.37798,0.881943 0.25198,0.3793 0.75595,0.883269 1.00794,1.385913 0.25198,0.502644 0.25198,1.006612 0.25198,1.384589 0,0.377976 0,0.62996 0.37798,1.135251 0.37797,0.505292 1.13393,1.261243 1.5119,1.763888 0.37798,0.502646 0.37798,0.75463 0.37798,1.006615 0,0.251984 0,0.503968 0,1.133928 0,0.62996 0,1.637897 0,2.267857 0,0.62996 0,0.881945 0.12573,1.386442 0.12572,0.504498 0.37771,1.26045 0.50396,2.267857 0.12626,1.007408 0.12626,2.267328 0.12626,3.905225 0,1.637897 0,3.65377 0,5.795635 0,2.141865 0,4.409727 0,6.047627 0,1.63789 0,2.64583 -0.25097,3.52757 -0.25096,0.88173 -0.75494,1.63769 -1.00794,2.26785 -0.253,0.63017 -0.253,1.13414 -0.50397,1.7639 -0.25096,0.62975 -0.75493,1.3857 -1.1326,1.88987 -0.37766,0.50418 -0.62965,0.75616 -0.75696,1.00815 -0.12732,0.25198 -0.12732,0.50396 -0.25199,0.75594 -0.12467,0.25199 -0.37666,0.50397 -0.50397,0.75596 -0.12732,0.25198 -0.12732,0.50397 -0.37828,1.00773 -0.25097,0.50376 -0.75494,1.25972 -1.13261,1.76389 -0.37767,0.50417 -0.62965,0.75616 -0.88164,0.88347 -0.25198,0.12732 -0.50397,0.12732 -0.63128,0.37798 -0.12732,0.25066 -0.12732,0.75463 -0.37772,1.13313 -0.25039,0.37851 -0.75436,0.63049 -1.00793,0.88195 -0.25357,0.25145 -0.25357,0.50344 -0.37877,0.88115 -0.1252,0.37771 -0.37718,0.88168 -0.75436,1.26045 -0.37718,0.37876 -0.88115,0.63075 -1.2594,0.75753 -0.37824,0.12679 -0.63022,0.12679 -0.75753,0.25146 -0.12732,0.12467 -0.12732,0.37665 -0.37798,0.75463 -0.25066,0.37798 -0.75463,0.88195 -1.13261,1.13525 -0.37797,0.25331 -0.62996,0.25331 -1.00793,0.50397 -0.37798,0.25066 -0.88195,0.75463 -1.38565,1.13313 -0.5037,0.37851 -1.00767,0.63049 -1.38591,0.88195 -0.37824,0.25145 -0.63023,0.50344 -1.134,0.88172 -0.50376,0.37828 -1.25971,0.88225 -1.63922,1.25992 -0.3795,0.37767 -0.3795,0.62966 -0.88214,0.75698 -0.50265,0.12731 -1.51058,0.12731 -2.14054,0.25197 -0.62996,0.12467 -0.88195,0.37666 -1.25966,0.62917 -0.37771,0.25252 -0.88168,0.5045 -1.13525,0.75596 -0.25357,0.25145 -0.25357,0.50343 -0.37824,0.63075 -0.12467,0.12731 -0.37665,0.12731 -0.75436,0.25251 -0.37772,0.1252 -0.88169,0.37719 -1.51165,0.62944 -0.62996,0.25225 -1.38591,0.50423 -2.14192,0.88171 -0.75601,0.37749 -1.51197,0.88146 -2.14187,1.25966 -0.6299,0.3782 -1.13386,0.63018 -1.88982,1.00816 -0.75595,0.37798 -1.76389,0.88195 -3.02381,1.38618 -1.25992,0.50423 -2.77182,1.0082 -3.65403,1.38538 -0.88221,0.37718 -1.13419,0.62917 -2.26812,0.75648 -1.13393,0.12732 -3.1498,0.12732 -4.28373,0.25199 -1.13393,0.12467 -1.38592,0.37665 -1.88988,0.50397 -0.50397,0.12731 -1.25993,0.12731 -2.01562,0.25277 -0.755681,0.12547 -1.511632,0.37745 -2.519834,0.50397 -1.008201,0.12652 -2.268122,0.12652 -3.149802,0.25172 -0.881681,0.1252 -1.385647,0.37718 -2.015873,0.50396 -0.630225,0.12679 -1.386177,0.12679 -2.141927,0.37776 -0.75575,0.25097 -1.511698,0.75493 -2.015871,1.00794 -0.504173,0.253 -0.756157,0.253 -1.260125,0.253 -0.503968,0 -1.259921,0 -1.889881,0.25066 -0.62996,0.25066 -1.13393,0.75463 -1.511906,1.00793 -0.377975,0.25331 -0.629959,0.25331 -1.007671,0.37851 -0.377711,0.1252 -0.881681,0.37719 -1.259921,0.50397 -0.37824,0.12679 -0.630224,0.12679 -1.007934,0.25199 -0.377711,0.12519 -0.881681,0.37718 -1.259922,0.50396 -0.378241,0.12679 -0.630225,0.12679 -1.007937,0.25199 -0.377713,0.1252 -0.881679,0.37718 -1.385913,0.50396 -0.504233,0.12679 -1.008201,0.12679 -1.386178,0.25146 -0.377976,0.12467 -0.629959,0.37665 -1.007935,0.50397 -0.377977,0.12731 -0.881945,0.12731 -1.763889,0.12731 -0.881945,0 -2.141865,0 -3.023809,0 -0.881945,0 -1.385914,0 -1.889617,0.1252 -0.503704,0.1252 -1.007673,0.37719 -1.385913,0.50397 -0.378241,0.12679 -0.630225,0.12679 -0.882207,0.25146 -0.251982,0.12466 -0.50397,0.37665 -1.13393,0.50397 -0.629961,0.12731 -1.637897,0.12731 -3.275794,0.12731 -1.637897,0 -3.905754,0 -5.417659,0 -1.511905,0 -2.267857,0 -2.897553,0.1252 -0.629697,0.1252 -1.133663,0.37718 -1.637897,0.50396 -0.504233,0.12679 -1.008201,0.12679 -1.386178,0.25146 -0.377976,0.12467 -0.629959,0.37665 -0.629959,0.37665 0,0 0.251983,-0.25198 -0.12576,-0.25105 -0.377743,9.4e-4 -1.385678,0.25292 -1.637895,0.3793 -0.252218,0.12638 0.25175,0.12638 -0.378052,0.25216 -0.629801,0.12578 -2.393691,0.37777 -3.779762,0.50398 -1.386071,0.1262 -2.394007,0.1262 -2.899298,0.50285 -0.505292,0.37665 -0.505292,1.1326 -0.0011,1.89004 0.504181,0.75743 1.512115,1.51338 2.141599,2.14266 0.629485,0.62927 0.88147,1.13324 1.261033,1.38575 0.379563,0.25251 0.883531,0.25251 1.260184,0.3785 0.376654,0.126 0.628639,0.37798 1.132912,0.75616 0.504272,0.37818 1.260227,0.88215 1.88988,1.38591 0.629653,0.50377 1.133622,1.00774 1.638914,1.25972 0.505292,0.25199 1.00926,0.25199 1.385912,0.37798 0.376651,0.12599 0.628639,0.37798 1.38459,1.13393 0.755952,0.75595 2.015872,2.01587 3.276812,2.77202 1.26094,0.75616 2.520859,1.00814 3.402315,1.26019 0.881456,0.25205 1.385426,0.50403 1.764195,0.62976 0.37877,0.12573 0.630754,0.12573 1.259921,0.37798 0.629166,0.25225 1.637104,0.75621 2.392526,1.25991 0.755423,0.50371 1.259393,1.00767 1.638691,1.25966 0.379298,0.25198 0.631283,0.25198 0.881944,0.37797 0.250661,0.126 0.502646,0.37798 0.755953,0.50398 0.253306,0.12599 0.50529,0.12599 0.882473,0.25225 0.377183,0.12625 0.88115,0.37824 1.511376,0.63022 0.630225,0.25198 1.386176,0.50397 2.141336,1.00767 0.755159,0.5037 1.51111,1.25966 2.519731,1.88989 1.00862,0.63023 2.268543,1.1342 3.150331,1.51217 0.881789,0.37797 1.385758,0.62995 1.889724,0.88194 0.503967,0.25198 1.007938,0.50397 1.63737,1.00767 0.629431,0.5037 1.385382,1.25966 2.015871,1.76389 0.630488,0.50423 1.134459,0.75622 1.764195,1.13413 0.629736,0.37791 1.385691,0.88188 1.889353,1.25965 0.503662,0.37778 0.755648,0.62976 1.385818,1.13389 0.630171,0.50413 1.638107,1.26008 2.267591,1.88935 0.629484,0.62927 0.881468,1.13324 1.261033,1.38575 0.379565,0.25252 0.883533,0.25252 1.386178,0.5045 0.502645,0.25199 1.006615,0.75595 1.385914,1.00794 0.379298,0.25198 0.631282,0.25198 0.881944,0.37797 0.250662,0.12599 0.502644,0.37798 1.006919,0.75616 0.504275,0.37818 1.260223,0.88215 1.637895,1.38459 0.377672,0.50244 0.377672,1.00641 0.756442,1.38597 0.378769,0.37957 1.134718,0.63155 1.763678,1.13495 0.62897,0.5034 1.13294,1.25935 2.01577,1.88989 0.88283,0.63054 2.14275,1.13451 3.40238,1.76443 1.25962,0.62992 2.51954,1.38587 3.52789,1.88987 1.00834,0.504 1.76429,0.75599 2.39346,1.1337 0.62916,0.37771 1.13313,0.88168 1.51111,1.25965 0.37798,0.37798 0.62996,0.62996 0.88326,0.75595 0.25331,0.12599 0.5053,0.12599 0.62997,0.25066 0.12466,0.12467 0.12466,0.37666 0.25198,0.50398 0.12731,0.12731 0.3793,0.12731 0.50397,0.25198 0.12467,0.12467 0.12467,0.37665 0.25066,0.62996 0.126,0.25331 0.37798,0.50529 0.75648,0.75753 0.3785,0.25225 0.88247,0.50424 1.25992,0.75596 0.37745,0.25172 0.62944,0.50371 1.25992,0.88194 0.63049,0.37824 1.63843,0.88221 3.02407,1.76407 1.38563,0.88186 3.14952,2.14178 4.40895,3.40113 1.25944,1.25936 2.01539,2.51928 3.40189,3.77981 1.38651,1.26054 3.40238,2.52045 4.91445,3.40244 1.51208,0.88198 2.52002,1.38595 3.40174,1.88986 0.88172,0.50391 1.63767,1.00787 2.01535,1.38432 0.37767,0.37645 0.37767,0.62844 0.50499,0.75576 0.12731,0.12731 0.37929,0.12731 0.62995,0.2533 0.25067,0.126 0.50265,0.37798 0.75463,0.62996 0.25199,0.25199 0.50397,0.50397 0.75595,0.75595 0.25198,0.25199 0.50397,0.50398 0.88327,0.62997 0.3793,0.12599 0.88327,0.12599 1.13393,0.25066 0.25066,0.12466 0.25066,0.37665 0.37665,0.62996 0.126,0.25331 0.37798,0.50529 0.75648,0.75753 0.37851,0.25225 0.88247,0.50423 1.25992,0.75595 0.37745,0.25173 0.62944,0.50371 1.00794,0.75596 0.3785,0.25225 0.88247,0.50424 1.51221,0.88215 0.62973,0.37791 1.38569,0.88188 2.14164,1.38585 0.75596,0.50397 1.5119,1.00793 1.88958,1.38439 0.37767,0.37645 0.37767,0.62843 0.62965,1.00773 0.25199,0.3793 0.75596,0.88327 1.13393,1.26124 0.37798,0.37798 0.62997,0.62997 1.00847,0.88221 0.3785,0.25225 0.88247,0.50424 1.26124,0.62996 0.37877,0.12573 0.63075,0.12573 1.00741,0.37771 0.37665,0.25199 0.88062,0.75595 1.25833,1.25939 0.37772,0.50345 0.6297,1.00741 1.00926,1.25992 0.37956,0.25252 0.88353,0.25252 1.38618,0.5045 0.50264,0.25199 1.00661,0.75596 1.51111,1.1342 0.50449,0.37823 1.00846,0.63022 1.63789,1.13393 0.62943,0.5037 1.38539,1.25965 2.01588,1.76388 0.63049,0.50424 1.13445,0.75622 1.51323,0.88195 0.37877,0.12573 0.63075,0.12573 1.0074,0.37771 0.37666,0.25199 0.88063,0.75596 1.25992,1.00794 0.3793,0.25198 0.63129,0.25198 0.88195,0.37797 0.25067,0.126 0.50265,0.37798 0.88062,0.75595 0.37798,0.37798 0.88194,0.88195 1.26124,1.13393 0.3793,0.25199 0.63129,0.25199 1.00774,0.62966 0.37644,0.37767 0.88042,1.13363 1.38591,1.5119 0.50549,0.37828 1.00946,0.37828 1.26012,0.50295 0.25066,0.12467 0.25066,0.37666 0.37665,0.62997 0.126,0.2533 0.37798,0.50529 0.75649,0.75753 0.3785,0.25225 0.88247,0.50424 1.25992,0.75596 0.37745,0.25172 0.62943,0.5037 0.88274,0.62969 0.2533,0.12599 0.50529,0.12599 0.62996,0.25066 0.12467,0.12467 0.12467,0.37666 0.37718,0.63023 0.25251,0.25357 0.75648,0.50556 1.25972,1.00896 0.50324,0.5034 1.0072,1.25934 1.76357,2.01576 0.75637,0.75641 1.7643,1.51237 2.77203,2.39415 1.00772,0.88179 2.01566,1.88972 2.89791,2.64588 0.88225,0.75616 1.6382,1.26013 2.39354,1.76369"
       id="path14"
       inkscape:connector-curvature="0"
       inkscape:path-effect="#path-effect16"
       inkscape:original-d="M 39.309524,263.73809 42.333333,24.857142 c 1.262567,-0.25463 2.522487,-0.506614 3.779762,-0.755952 0.758598,-0.0026 1.514551,-0.0026 2.267857,0 1.514551,-0.0026 3.026456,-0.0026 4.535715,0 5.042328,-0.0026 10.082011,-0.0026 15.119047,0 8.570106,-0.0026 17.137567,-0.0026 25.702381,0 2.270503,-0.0026 4.53836,-0.0026 6.803575,0 0.75859,-0.0026 1.51455,-0.0026 2.26785,0 0.25463,-0.0026 0.50662,-0.0026 0.75596,0 0.25463,-0.0026 0.50661,-0.0026 0.75595,0 0.25463,0.249339 0.50661,0.501323 0.75595,0.755953 0.003,0.249338 0.003,0.501322 0,0.755952 0.50662,-0.0026 1.01058,-0.0026 1.51191,0 1.01058,0.501323 2.01851,1.005291 3.02381,1.511905 0.50661,-0.0026 1.01058,-0.0026 1.5119,0 0.003,0.249338 0.003,0.501322 0,0.755952 0.50661,-0.0026 1.01058,-0.0026 1.5119,0 0.003,0.249339 0.003,0.501323 0,0.755953 0.50662,0.249338 1.01059,0.501322 1.51191,0.755952 0.003,0.249338 0.003,0.501323 0,0.755953 0.25463,0.249338 0.50661,0.501322 0.75595,0.755952 0.50662,0.249338 1.01058,0.501322 1.51191,0.755952 0.25463,0.249339 0.50661,0.501323 0.75595,0.755953 0.25463,-0.0026 0.50661,-0.0026 0.75595,0 0.7586,0.753306 1.51455,1.509259 2.26786,2.267857 0.50661,0.249338 1.01058,0.501322 1.5119,0.755952 0.50662,0.753307 1.01059,1.509259 1.51191,2.267857 0.25463,-0.0026 0.50661,-0.0026 0.75595,0 0.003,0.501323 0.003,1.005291 0,1.511905 0.25463,0.249338 0.50661,0.501323 0.75595,0.755952 0.50662,0.501323 1.01059,1.005291 1.51191,1.511905 0.25463,-0.0026 0.50661,-0.0026 0.75595,0 0.003,0.249339 0.003,0.501323 0,0.755953 0.50661,0.249338 1.01058,0.501322 1.5119,0.755952 0.50662,0.753307 1.01059,1.509259 1.51191,2.267857 0.7586,1.005291 1.51455,2.013227 2.26786,3.02381 0.25463,0.753306 0.50661,1.509259 0.75595,2.267857 0.50661,0.249338 1.01058,0.501322 1.5119,0.755952 0.003,0.249338 0.003,0.501323 0,0.755953 0.25463,0.249338 0.50662,0.501322 0.75596,0.755952 0.50661,0.501322 1.01058,1.005291 1.5119,1.511905 0.25463,0.501322 0.50662,1.00529 0.75595,1.511904 0.25463,-0.0026 0.50662,-0.0026 0.75596,0 0.50661,1.509259 1.01058,3.021164 1.5119,4.535715 0.50661,0.249338 1.01058,0.501322 1.51191,0.755952 0.50661,0.501323 1.01058,1.005291 1.5119,1.511905 0.25463,0.501322 0.50661,1.005291 0.75595,1.511905 0.50662,0.753306 1.01058,1.509259 1.51191,2.267857 0.003,0.249338 0.003,0.501322 0,0.755952 0.25463,0.249338 0.50661,0.501323 0.75595,0.755953 0.25463,0.249338 0.50661,0.501322 0.75595,0.755952 0.003,0.753307 0.003,1.509259 0,2.267857 0.25463,0.249338 0.50662,0.501323 0.75595,0.755952 0.003,0.249339 0.003,0.501323 0,0.755953 0.50662,0.501322 1.01059,1.005291 1.51191,1.511905 0.003,0.501322 0.003,1.00529 0,1.511904 0.003,0.249339 0.003,0.501323 0,0.755953 0.7586,0.753306 1.51455,1.509259 2.26786,2.267857 0.003,0.249338 0.003,0.501322 0,0.755952 0.003,0.249339 0.003,0.501323 0,0.755953 0.003,1.00529 0.003,2.013227 0,3.023809 0.003,0.249338 0.003,0.501323 0,0.755953 0.25463,0.753306 0.50661,1.509259 0.75595,2.267857 0.003,1.257275 0.003,2.517195 0,3.779762 0.003,2.013227 0.003,4.0291 0,6.047619 0.003,2.265211 0.003,4.533073 0,6.803573 0.003,1.00529 0.003,2.01323 0,3.02381 -0.50132,0.7533 -1.00529,1.50926 -1.51191,2.26785 0.003,0.50133 0.003,1.0053 0,1.51191 -0.50132,0.75331 -1.00529,1.50926 -1.5119,2.26786 -0.24934,0.24933 -0.50132,0.50132 -0.75595,0.75595 0.003,0.24934 0.003,0.50132 0,0.75595 -0.24934,0.24934 -0.50133,0.50132 -0.75596,0.75595 0.003,0.24934 0.003,0.50133 0,0.75596 -0.50132,0.7533 -1.00529,1.50926 -1.5119,2.26785 -0.24934,0.24934 -0.50132,0.50133 -0.75595,0.75596 -0.24934,-0.003 -0.50133,-0.003 -0.75596,0 0.003,0.50132 0.003,1.00529 0,1.5119 -0.50132,0.24934 -1.00529,0.50132 -1.5119,0.75595 0.003,0.24934 0.003,0.50133 0,0.75596 -0.24934,0.50132 -0.50132,1.00529 -0.75595,1.5119 -0.50132,0.24934 -1.00529,0.50132 -1.51191,0.75595 -0.24934,-0.003 -0.50132,-0.003 -0.75595,0 0.003,0.24934 0.003,0.50132 0,0.75595 -0.50132,0.50133 -1.00529,1.0053 -1.5119,1.51191 -0.24934,-0.003 -0.50133,-0.003 -0.75596,0 -0.50132,0.50132 -1.00529,1.00529 -1.5119,1.5119 -0.50132,0.24934 -1.00529,0.50133 -1.51191,0.75596 -0.24933,0.24933 -0.50132,0.50132 -0.75595,0.75595 -0.75331,0.50132 -1.50926,1.00529 -2.26786,1.5119 0.003,0.24934 0.003,0.50133 0,0.75596 -1.00529,-0.003 -2.01322,-0.003 -3.02381,0 -0.24933,0.24933 -0.50132,0.50132 -0.75595,0.75595 -0.50132,0.24934 -1.00529,0.50132 -1.5119,0.75595 0.003,0.24934 0.003,0.50132 0,0.75595 -0.24934,-0.003 -0.50132,-0.003 -0.75595,0 -0.50133,0.24934 -1.0053,0.50133 -1.51191,0.75596 -0.75331,0.24933 -1.50926,0.50132 -2.26786,0.75595 -0.7533,0.50132 -1.50926,1.00529 -2.26785,1.5119 -0.50133,0.24934 -1.00529,0.50133 -1.51191,0.75596 -1.00529,0.50132 -2.01323,1.00529 -3.02381,1.5119 -1.50926,0.50132 -3.02116,1.00529 -4.53571,1.5119 -0.24934,0.24934 -0.50132,0.50133 -0.75595,0.75596 -2.01323,-0.003 -4.0291,-0.003 -6.04762,0 -0.24934,0.24934 -0.50133,0.50132 -0.75596,0.75595 -0.7533,-0.003 -1.50926,-0.003 -2.26785,0 -0.75331,0.24934 -1.509262,0.50132 -2.26786,0.75595 -1.257275,-0.003 -2.517196,-0.003 -3.779762,0 -0.501323,0.24934 -1.005291,0.50132 -1.511905,0.75595 -0.753307,-0.003 -1.509259,-0.003 -2.267857,0 -0.753307,0.50133 -1.509259,1.00529 -2.267857,1.51191 -0.249339,-0.003 -0.501323,-0.003 -0.755953,0 -0.753306,-0.003 -1.509259,-0.003 -2.267857,0 -0.501322,0.50132 -1.005291,1.00529 -1.511905,1.5119 -0.249338,-0.003 -0.501322,-0.003 -0.755952,0 -0.501323,0.24934 -1.005291,0.50133 -1.511905,0.75596 -0.249338,-0.003 -0.501322,-0.003 -0.755952,0 -0.501323,0.24933 -1.005291,0.50132 -1.511905,0.75595 -0.249338,-0.003 -0.501322,-0.003 -0.755952,0 -0.501323,0.24934 -1.005291,0.50132 -1.511905,0.75595 -0.501323,-0.003 -1.005291,-0.003 -1.511905,0 -0.249338,0.24934 -0.501322,0.50132 -0.755952,0.75595 -0.501323,-0.003 -1.005291,-0.003 -1.511905,0 -1.257275,-0.003 -2.517195,-0.003 -3.779762,0 -0.501322,-0.003 -1.005291,-0.003 -1.511905,0 -0.501322,0.24934 -1.00529,0.50133 -1.511904,0.75596 -0.249339,-0.003 -0.501323,-0.003 -0.755953,0 -0.249338,0.24933 -0.501322,0.50132 -0.755952,0.75595 -1.005291,-0.003 -2.013227,-0.003 -3.02381,0 -2.265211,-0.003 -4.533068,-0.003 -6.803571,0 -0.753307,-0.003 -1.509259,-0.003 -2.267857,0 -0.501323,0.24934 -1.005291,0.50132 -1.511905,0.75595 -0.501323,-0.003 -1.005291,-0.003 -1.511905,0 -0.249338,0.24934 -0.501322,0.50132 -0.755952,0.75595 0.25463,-0.25463 0.506614,-0.50661 0.755952,-0.75595 -1.005291,0.24934 -2.013227,0.50132 -3.023809,0.75595 0.506614,-0.003 1.010582,-0.003 1.511904,0 -1.761243,0.24934 -3.525132,0.50133 -5.291666,0.75596 -1.005291,-0.003 -2.013227,-0.003 -3.02381,0 0.0026,0.7533 0.0026,1.50925 0,2.26785 1.010583,0.75331 2.018519,1.50926 3.02381,2.26786 0.25463,0.50132 0.506614,1.00529 0.755952,1.5119 0.506614,-0.003 1.010582,-0.003 1.511905,0 0.25463,0.24934 0.506614,0.50133 0.755952,0.75596 0.758598,0.50132 1.514551,1.00529 2.267857,1.5119 0.506614,0.50132 1.010583,1.00529 1.511905,1.51191 0.506614,-0.003 1.010582,-0.003 1.511905,0 0.25463,0.24933 0.506614,0.50132 0.755952,0.75595 1.262567,1.25727 2.522487,2.51719 3.779762,3.77976 1.262567,0.24934 2.522487,0.50132 3.779762,0.75595 0.506614,0.24934 1.010582,0.50133 1.511905,0.75596 0.25463,-0.003 0.506614,-0.003 0.755952,0 1.010583,0.50132 2.018519,1.00529 3.02381,1.5119 0.506614,0.50132 1.010582,1.00529 1.511905,1.5119 0.254629,-0.003 0.506614,-0.003 0.755952,0 0.25463,0.24934 0.506614,0.50133 0.755952,0.75596 0.25463,-0.003 0.506614,-0.003 0.755953,0 0.506614,0.24934 1.010582,0.50132 1.511904,0.75595 0.758599,0.24934 1.514551,0.50132 2.267858,0.75595 0.758598,0.75331 1.51455,1.50926 2.267857,2.26786 1.262566,0.50132 2.522487,1.00529 3.779762,1.5119 0.506614,0.24934 1.010582,0.50133 1.511904,0.75596 0.506614,0.24933 1.010583,0.50132 1.511905,0.75595 0.758598,0.75331 1.514551,1.50926 2.267857,2.26786 0.506614,0.24933 1.010583,0.50132 1.511905,0.75595 0.758598,0.50132 1.514551,1.00529 2.267857,1.5119 0.25463,0.24934 0.506614,0.50133 0.755953,0.75596 1.010582,0.7533 2.018518,1.50925 3.023809,2.26785 0.25463,0.50132 0.506614,1.00529 0.755952,1.51191 0.506615,-0.003 1.010583,-0.003 1.511905,0 0.506614,0.50132 1.010583,1.00529 1.511905,1.5119 0.25463,-0.003 0.506614,-0.003 0.755952,0 0.25463,0.24934 0.506614,0.50132 0.755953,0.75595 0.758598,0.50133 1.51455,1.00529 2.267857,1.51191 0.0026,0.50132 0.0026,1.00529 0,1.5119 0.758598,0.24934 1.514548,0.50133 2.267858,0.75596 0.50661,0.7533 1.01058,1.50926 1.5119,2.26785 1.26257,0.50133 2.52249,1.00529 3.77977,1.51191 1.26256,0.7533 2.52248,1.50926 3.77976,2.26786 0.7586,0.24933 1.51455,0.50132 2.26785,0.75595 0.50662,0.50132 1.01059,1.00529 1.51191,1.5119 0.25463,0.24934 0.50661,0.50132 0.75595,0.75595 0.25463,-0.003 0.50662,-0.003 0.75595,0 0.003,0.24934 0.003,0.50133 0,0.75596 0.25463,-0.003 0.50662,-0.003 0.75596,0 0.003,0.24934 0.003,0.50132 0,0.75595 0.25463,0.24934 0.50661,0.50132 0.75595,0.75595 0.50661,0.24934 1.01058,0.50132 1.5119,0.75595 0.25463,0.24934 0.50662,0.50133 0.75596,0.75596 1.01058,0.50132 2.01852,1.00529 3.02381,1.5119 1.76653,1.25728 3.53042,2.5172 5.29166,3.77976 0.7586,1.25728 1.51455,2.5172 2.26786,3.77977 2.01852,1.25727 4.03439,2.51719 6.04762,3.77976 1.01058,0.50132 2.01852,1.00529 3.02381,1.5119 0.7586,0.50132 1.51455,1.00529 2.26786,1.51191 0.003,0.24933 0.003,0.50132 0,0.75595 0.25463,-0.003 0.50661,-0.003 0.75595,0 0.25463,0.24934 0.50661,0.50132 0.75595,0.75595 0.25463,0.24934 0.50661,0.50132 0.75595,0.75595 0.25463,0.24934 0.50662,0.50133 0.75595,0.75596 0.50662,-0.003 1.01059,-0.003 1.51191,0 0.003,0.24933 0.003,0.50132 0,0.75595 0.25463,0.24934 0.50661,0.50132 0.75595,0.75595 0.50662,0.24934 1.01058,0.50132 1.51191,0.75595 0.25463,0.24934 0.50661,0.50133 0.75595,0.75596 0.50661,0.24933 1.01058,0.50132 1.5119,0.75595 0.7586,0.50132 1.51455,1.00529 2.26786,1.5119 0.7586,0.50133 1.51455,1.00529 2.26786,1.51191 0.003,0.24934 0.003,0.50132 0,0.75595 0.50661,0.50132 1.01058,1.00529 1.5119,1.5119 0.25463,0.24934 0.50662,0.50133 0.75596,0.75596 0.50661,0.24934 1.01058,0.50132 1.5119,0.75595 0.25463,-0.003 0.50661,-0.003 0.75595,0 0.50662,0.50132 1.01058,1.00529 1.51191,1.5119 0.25463,0.50133 0.50661,1.00529 0.75595,1.51191 0.50661,-0.003 1.01058,-0.003 1.5119,0 0.50662,0.50132 1.01059,1.00529 1.51191,1.5119 0.50661,0.24934 1.01058,0.50133 1.5119,0.75596 0.7586,0.7533 1.51455,1.50926 2.26786,2.26785 0.50662,0.24934 1.01058,0.50133 1.51191,0.75596 0.25463,-0.003 0.50661,-0.003 0.75595,0 0.50661,0.50132 1.01058,1.00529 1.5119,1.5119 0.25463,-0.003 0.50662,-0.003 0.75596,0 0.25463,0.24934 0.50661,0.50132 0.75595,0.75595 0.50661,0.50133 1.01058,1.00529 1.5119,1.51191 0.25463,-0.003 0.50662,-0.003 0.75595,0 0.50662,0.7533 1.01059,1.50926 1.51191,2.26785 0.50661,-0.003 1.01058,-0.003 1.5119,0 0.003,0.24934 0.003,0.50133 0,0.75596 0.25463,0.24934 0.50662,0.50132 0.75596,0.75595 0.50661,0.24934 1.01058,0.50132 1.5119,0.75595 0.25463,0.24934 0.50662,0.50132 0.75595,0.75595 0.25463,-0.003 0.50662,-0.003 0.75596,0 0.003,0.24934 0.003,0.50133 0,0.75596 0.50661,0.24933 1.01058,0.50132 1.5119,0.75595 0.50662,0.75331 1.01058,1.50926 1.51191,2.26786 1.01058,0.7533 2.01851,1.50926 3.02381,2.26785 1.01058,1.00529 2.01851,2.01323 3.0238,3.02381 0.7586,0.50133 1.51456,1.00529 2.26786,1.51191" />
  </g>
</svg>
