<?xml version="1.0" encoding="UTF-8" standalone="no"?>
<!-- Created with Inkscape (http://www.inkscape.org/) -->

<svg
   xmlns:dc="http://purl.org/dc/elements/1.1/"
   xmlns:cc="http://creativecommons.org/ns#"
   xmlns:rdf="http://www.w3.org/1999/02/22-rdf-syntax-ns#"
   xmlns:svg="http://www.w3.org/2000/svg"
   xmlns="http://www.w3.org/2000/svg"
   xmlns:sodipodi="http://sodipodi.sourceforge.net/DTD/sodipodi-0.dtd"
   xmlns:inkscape="http://www.inkscape.org/namespaces/inkscape"
   width="210mm"
   height="297mm"
   viewBox="0 0 210 297"
   version="1.1"
   id="svg40"
   inkscape:version="0.92.4 (5da689c313, 2019-01-14)"
   sodipodi:docname="72S.svg">
  <defs
     id="defs34">
    <inkscape:path-effect
       effect="bspline"
       id="path-effect44"
       is_visible="true"
       weight="33.333333"
       steps="2"
       helper_size="0"
       apply_no_weight="true"
       apply_with_weight="true"
       only_selected="false" />
  </defs>
  <sodipodi:namedview
     id="base"
     pagecolor="#ffffff"
     bordercolor="#666666"
     borderopacity="1.0"
     inkscape:pageopacity="0.0"
     inkscape:pageshadow="2"
     inkscape:zoom="0.35"
     inkscape:cx="400"
     inkscape:cy="560"
     inkscape:document-units="mm"
     inkscape:current-layer="layer1"
     showgrid="false"
     inkscape:window-width="1827"
     inkscape:window-height="1051"
     inkscape:window-x="84"
     inkscape:window-y="-9"
     inkscape:window-maximized="1" />
  <metadata
     id="metadata37">
    <rdf:RDF>
      <cc:Work
         rdf:about="">
        <dc:format>image/svg+xml</dc:format>
        <dc:type
           rdf:resource="http://purl.org/dc/dcmitype/StillImage" />
        <dc:title></dc:title>
      </cc:Work>
    </rdf:RDF>
  </metadata>
  <g
     inkscape:label="Layer 1"
     inkscape:groupmode="layer"
     id="layer1">
    <path
       style="fill:none;stroke:#000000;stroke-width:0.26458332px;stroke-linecap:butt;stroke-linejoin:miter;stroke-opacity:1"
       d="m 145.14286,88.357143 c 0.25276,-1.011051 0.50475,-2.018986 0.63035,-2.900698 0.1256,-0.881712 0.1256,-1.637663 0.1256,-3.023576 0,-1.385912 0,-3.401786 0,-5.165675 0,-1.763888 0,-3.275794 -0.12626,-4.282937 -0.12625,-1.007143 -0.37824,-1.51111 -0.50396,-2.015872 -0.12573,-0.504762 -0.12573,-1.008729 -0.25172,-1.385383 -0.126,-0.376653 -0.37798,-0.628639 -0.50398,-0.881945 -0.12599,-0.253307 -0.12599,-0.505291 -0.25066,-0.62996 -0.12467,-0.124669 -0.37665,-0.124669 -0.50396,-0.503968 -0.12732,-0.379299 -0.12732,-1.135253 -0.25358,-1.764419 -0.12625,-0.629167 -0.37824,-1.133133 -0.75595,-1.636572 -0.37771,-0.503438 -0.88168,-1.007407 -1.13366,-1.63869 -0.25199,-0.631284 -0.25199,-1.387238 -0.50344,-1.889618 -0.25146,-0.502381 -0.75543,-0.754366 -1.00794,-1.007937 -0.25251,-0.253571 -0.25251,-0.505554 -0.50396,-0.75595 -0.25146,-0.250397 -0.75543,-0.502381 -1.00794,-1.007938 -0.25252,-0.505556 -0.25252,-1.261508 -0.63019,-1.889941 -0.37767,-0.628434 -1.13362,-1.132402 -1.5119,-1.637897 -0.37828,-0.505495 -0.37828,-1.009465 -0.62974,-1.385855 -0.25146,-0.376389 -0.75542,-0.628369 -1.13419,-1.00714 -0.37877,-0.378771 -0.63075,-0.882738 -0.88115,-1.134194 -0.2504,-0.251456 -0.50238,-0.251456 -0.6297,-0.630755 -0.12731,-0.379298 -0.12731,-1.13525 -0.50498,-1.763685 -0.37768,-0.628434 -1.13363,-1.132401 -1.51191,-1.511904 -0.37828,-0.379502 -0.37828,-0.631486 -0.50295,-0.756155 -0.12467,-0.124669 -0.37665,-0.124669 -0.62996,-0.250662 -0.2533,-0.125993 -0.50529,-0.377976 -0.88274,-0.629697 -0.37745,-0.251721 -0.88142,-0.503705 -1.25992,-0.755953 -0.3785,-0.252248 -0.63049,-0.504231 -0.88115,-0.630223 -0.25066,-0.125992 -0.50264,-0.125992 -1.00793,-0.503968 -0.50529,-0.377977 -1.26125,-1.133928 -1.88988,-1.511905 -0.62864,-0.377976 -1.13261,-0.377976 -1.51191,-0.503966 -0.3793,-0.12599 -0.63129,-0.377978 -1.00926,-0.755954 -0.37798,-0.377977 -0.88195,-0.881947 -1.2586,-1.133931 -0.37665,-0.251983 -0.62864,-0.251983 -1.25939,-0.503703 -0.63076,-0.251719 -1.63869,-0.755686 -2.52037,-1.133663 -0.88168,-0.377976 -1.63763,-0.62996 -2.39407,-1.007998 -0.75644,-0.378038 -1.5124,-0.882004 -2.51931,-1.134191 -1.00692,-0.252188 -2.26685,-0.252188 -3.14958,-0.377915 -0.88274,-0.125727 -1.38671,-0.377712 -1.76389,-0.50397 -0.37718,-0.126258 -0.62917,-0.126258 -1.51112,-0.126258 -0.88194,0 -2.39384,0 -3.40257,-0.125727 -1.00873,-0.125726 -1.5127,-0.377711 -2.015873,-0.503967 -0.503175,-0.126257 -1.007146,-0.126257 -2.015081,-0.126257 -1.007935,0 -2.519841,0 -4.535715,0 -2.015874,0 -4.535712,0 -6.299602,0 -1.76389,0 -2.771825,0 -3.401786,0.124669 -0.629961,0.124669 -0.881945,0.376653 -1.259921,0.503967 -0.377976,0.127315 -0.881944,0.127315 -1.25992,0.251985 -0.377976,0.12467 -0.629962,0.376655 -0.881945,0.50397 -0.251984,0.127315 -0.503968,0.127315 -0.88168,0.252513 -0.377711,0.125198 -0.881679,0.377181 -1.259921,0.503967 -0.378241,0.126786 -0.630225,0.126786 -0.75754,0.251455 -0.127314,0.124669 -0.127314,0.376653 -0.503763,0.754934 -0.37645,0.378282 -1.132403,0.882251 -1.762567,1.385914 -0.630164,0.503663 -1.134132,1.00763 -1.512107,1.260937 -0.377976,0.253307 -0.62996,0.253307 -1.133664,0.37877 -0.503705,0.125463 -1.259657,0.377448 -2.015671,0.754936 -0.756013,0.377489 -1.511965,0.881456 -2.267857,1.259921 -0.755891,0.378465 -1.511843,0.630449 -2.016605,1.007367 -0.504762,0.376918 -0.756745,0.880885 -1.133928,1.259655 -0.377184,0.37877 -0.881152,0.630754 -1.38512,0.882738 -0.503968,0.251984 -1.007936,0.503968 -1.261508,0.881415 -0.253573,0.377448 -0.253573,0.881416 -0.378242,1.134722 -0.124669,0.253307 -0.376653,0.253307 -0.628636,0.377976 -0.251984,0.124669 -0.503967,0.376654 -0.755952,0.628638 -0.251984,0.251985 -0.503968,0.503969 -0.755953,0.755953 -0.251984,0.251985 -0.503969,0.503968 -0.881945,0.631283 -0.377976,0.127315 -0.881943,0.127315 -1.13525,0.251984 -0.253307,0.124669 -0.253307,0.376653 -0.503969,0.754629 -0.250662,0.377976 -0.754631,0.881945 -1.259282,1.763616 -0.504652,0.88167 -1.008621,2.141592 -1.385913,2.897818 -0.377292,0.756225 -0.629277,1.00821 -0.756591,1.386186 -0.127315,0.377976 -0.127315,0.881944 -0.127315,1.259919 0,0.377976 0,0.62996 -0.124669,0.881945 -0.124669,0.251986 -0.376653,0.503969 -0.629431,1.007673 -0.252777,0.503703 -0.504761,1.259655 -0.882473,2.141599 -0.377711,0.881945 -0.88168,1.889882 -1.260144,3.023871 -0.378465,1.133989 -0.630449,2.393911 -0.881416,3.150067 -0.250966,0.756155 -0.502949,1.008139 -0.630264,1.6381 -0.127316,0.62996 -0.127316,1.637896 -0.252515,2.393585 -0.125198,0.755688 -0.377183,1.259656 -0.503969,2.141865 -0.126786,0.882209 -0.126786,2.142129 -0.251984,3.023809 -0.125198,0.88168 -0.377182,1.385648 -0.503968,1.88988 -0.126786,0.504233 -0.126786,1.008203 -0.251984,1.511906 -0.125198,0.503703 -0.377182,1.007671 -0.503967,1.889881 -0.126786,0.882209 -0.126786,2.142128 -0.251985,3.023808 -0.125198,0.88168 -0.377183,1.385648 -0.503969,1.763889 -0.126786,0.37824 -0.126786,0.630227 -0.126786,1.008203 0,0.377976 0,0.881943 -0.125603,1.637663 -0.125603,0.755719 -0.377587,1.763655 -0.503968,2.519841 -0.126381,0.756187 -0.126381,1.260154 -0.126381,1.890114 0,0.62996 0,1.385914 0,2.645833 0,1.25992 0,3.02381 0,4.7877 0,1.76389 0,3.52778 0,4.91369 0,1.38591 0,2.39385 0.25171,3.52841 0.25171,1.13457 0.755682,2.3945 1.133931,3.15113 0.378248,0.75664 0.630233,1.00862 0.756225,1.63726 0.125991,0.62864 0.125991,1.63657 0.253306,2.14186 0.127315,0.50529 0.379299,0.50529 0.503968,0.62996 0.124669,0.12467 0.124669,0.37666 0.376653,0.75596 0.251984,0.3793 0.755955,0.88327 1.007939,1.38591 0.251983,0.50264 0.251983,1.00661 0.377973,1.38591 0.12599,0.3793 0.377977,0.63129 0.755953,1.00926 0.377976,0.37798 0.881947,0.88194 1.259658,1.51111 0.377712,0.62917 0.629695,1.38512 1.133768,2.26765 0.504074,0.88252 1.260029,1.89046 1.889944,2.77231 0.629915,0.88185 1.133882,1.63781 1.511797,2.26754 0.377915,0.62974 0.629901,1.13371 0.756158,1.51089 0.126256,0.37718 0.126256,0.62916 0.379563,0.75647 0.253307,0.12732 0.757274,0.12732 1.259655,0.63076 0.50238,0.50344 1.00635,1.51138 1.258599,2.26654 0.252248,0.75516 0.252248,1.25912 0.379563,1.51243 0.127315,0.25331 0.379299,0.25331 0.62996,0.3793 0.250662,0.12599 0.502644,0.37798 0.880356,1.00741 0.377712,0.62943 0.881681,1.63737 1.386443,2.26812 0.504763,0.63075 1.008729,0.88274 1.890146,1.63842 0.881416,0.75569 2.141335,2.01562 2.898611,2.64558 0.757275,0.62996 1.009258,0.62996 1.512209,0.88215 0.502952,0.25218 1.2589,0.75615 1.763888,1.00793 0.504987,0.25178 0.75697,0.25178 1.134154,0.37804 0.377184,0.12625 0.88115,0.37824 1.258598,0.62996 0.377447,0.25171 0.62943,0.5037 0.882737,0.62969 0.253307,0.12599 0.505291,0.12599 0.755953,0.25198 0.250662,0.126 0.502647,0.37798 1.259921,0.50398 0.757274,0.12599 2.017196,0.12599 3.27681,0.25219 1.259615,0.12619 2.519536,0.37817 3.401787,0.50396 0.88225,0.12579 1.386217,0.12579 2.268162,0.12579 0.881945,0 2.141864,0 2.897817,0 0.755953,0 1.007937,0 1.259921,0 0.251984,0 0.503968,0 0.628637,0.12467 0.124669,0.12467 0.124669,0.37665 0.251984,0.50397 0.127315,0.12731 0.379298,0.12731 0.631283,0.12731 0.251986,0 0.50397,0 1.259921,0 0.755952,0 2.015874,0 3.023811,0 1.007937,0 1.763888,0 2.393054,0.12626 0.629167,0.12625 1.133136,0.37824 2.015572,0.63016 0.88243,0.25192 2.14235,0.50391 2.89702,0.88115 0.75467,0.37725 1.00666,0.88122 1.51221,1.13373 0.50556,0.25251 1.26151,0.25251 1.76389,0.50396 0.50238,0.25146 0.75437,0.75543 1.25939,1.1342 0.50503,0.37877 1.26098,0.63075 1.89068,0.88274 0.62969,0.25198 1.13366,0.50397 1.6371,0.88168 0.50343,0.37771 1.0074,0.88168 1.3867,1.13366 0.3793,0.25199 0.63129,0.25199 0.88195,0.37798 0.25066,0.12599 0.50264,0.37798 0.75595,0.50397 0.25331,0.12599 0.50529,0.12599 0.75595,0.25198 0.25066,0.126 0.50265,0.37798 0.75595,0.50397 0.25331,0.12599 0.5053,0.12599 0.88248,0.25225 0.37718,0.12625 0.88115,0.37824 1.25992,0.50396 0.37877,0.12573 0.63075,0.12573 0.88141,0.25172 0.25066,0.126 0.50265,0.37799 1.00741,0.63024 0.50476,0.25224 1.26072,0.50423 2.14208,1.00809 0.88136,0.50385 1.8893,1.25981 2.64636,1.63763 0.75706,0.37781 1.26103,0.37781 1.51169,0.62848 0.25067,0.25066 0.25067,0.75462 0.50397,1.00793 0.25331,0.25331 0.75728,0.25331 1.13525,0.25331 0.37798,0 0.62996,0 0.75463,0.12467 0.12467,0.12467 0.12467,0.37665 0.25066,0.62996 0.126,0.2533 0.37798,0.50529 0.75596,0.88326 0.37798,0.37798 0.88194,0.88195 1.38644,1.26019 0.5045,0.37824 1.00846,0.63022 1.38565,1.13313 0.37718,0.50292 0.62917,1.25887 0.88142,1.76363 0.25224,0.50477 0.50422,0.75675 0.88194,1.38618 0.37771,0.62943 0.88168,1.63737 1.63789,2.64583 0.75622,1.00847 1.76415,2.01641 2.26812,2.64504 0.50397,0.62864 0.50397,0.88062 0.6297,1.25939 0.12573,0.37877 0.37771,0.88274 0.75648,1.26151 0.37877,0.37877 0.88274,0.63076 1.1342,1.25913 0.25145,0.62837 0.25145,1.63631 0.37744,2.26759 0.12599,0.63129 0.37797,0.88327 0.50397,1.63789 0.12599,0.75463 0.12599,2.01456 0.25172,2.89729 0.12573,0.88274 0.37771,1.38671 0.6297,2.0164 0.25198,0.6297 0.50397,1.38565 0.88197,2.77142 0.37801,1.38578 0.88198,3.40165 1.25992,4.7877 0.37795,1.38606 0.62993,2.14201 0.75619,2.64545 0.12626,0.50344 0.12626,0.75542 0.25199,1.13419 0.12572,0.37877 0.37771,0.88274 0.50396,1.76389 0.12626,0.88115 0.12626,2.14107 0.12626,2.89703 0,0.75595 0,1.00793 0.12573,1.3867 0.12572,0.37877 0.37771,0.88274 0.50396,1.25992 0.12626,0.37718 0.12626,0.62917 0.12626,1.00715 0,0.37797 0,0.88194 0,1.63789 0,0.75595 0,1.76389 0,3.90576 0,2.14186 0,5.41765 0,8.18948 0,2.77183 0,5.03968 0,6.55159 0,1.5119 0,2.26785 -0.37666,3.02381 -0.37665,0.75595 -1.1326,1.5119 -1.5119,2.14186 -0.3793,0.62996 -0.3793,1.13393 -0.5045,1.63764 -0.1252,0.5037 -0.37718,1.00766 -0.62916,1.51163 -0.25199,0.50397 -0.50397,1.00794 -0.75542,1.38618 -0.25146,0.37824 -0.50344,0.63023 -0.63076,1.0082 -0.12731,0.37798 -0.12731,0.88195 -0.37797,1.38592 -0.25067,0.50396 -0.75464,1.00793 -1.13314,1.51164 -0.37851,0.5037 -0.63049,1.00766 -1.00793,1.51189 -0.37745,0.50424 -0.88142,1.00821 -1.51138,1.63817 -0.62996,0.62996 -1.38591,1.38591 -1.88988,1.88988 -0.50397,0.50397 -0.75596,0.75595 -0.88327,1.00794 -0.12732,0.25198 -0.12732,0.50397 -0.25199,0.63129 -0.12466,0.12731 -0.37665,0.12731 -0.50397,0.25198 -0.12731,0.12467 -0.12731,0.37665 -0.37771,0.62916 -0.25039,0.25252 -0.75436,0.5045 -1.25859,0.88195 -0.50424,0.37745 -1.0082,0.88141 -1.38618,1.13472 -0.37797,0.25331 -0.62996,0.25331 -1.00767,0.37851 -0.37771,0.12519 -0.88168,0.37718 -1.25992,0.50397 -0.37824,0.12678 -0.63023,0.12678 -0.88222,0.25145 -0.25198,0.12467 -0.50396,0.37665 -0.75595,0.50397 -0.25198,0.12731 -0.50396,0.12731 -0.63128,0.25198 -0.12731,0.12467 -0.12731,0.37665 -0.37797,0.50397 -0.25066,0.12731 -0.75463,0.12731 -1.38433,0.25277 -0.62969,0.12547 -1.38564,0.37745 -2.14186,0.50398 -0.75622,0.12652 -1.51217,0.12652 -2.01614,0.25119 -0.50397,0.12467 -0.75595,0.37665 -1.76389,0.50397 -1.00794,0.12731 -2.77183,0.12731 -5.66965,0.12731 -2.89781,0 -6.92956,0 -11.71726,0 -4.787692,0 -10.331342,0 -13.859121,0 -3.527778,0 -5.039683,0 -6.173611,0 -1.133927,0 -1.889882,0 -2.39385,0 -0.503967,0 -0.755951,0 -1.009258,-0.12599 -0.253308,-0.12599 -0.505295,-0.37798 -0.88274,-0.6297 -0.377445,-0.25172 -0.881415,-0.5037 -1.51111,-0.75569 -0.629695,-0.25198 -1.385648,-0.50397 -2.520371,-1.38618 -1.134723,-0.8822 -2.64663,-2.39411 -3.653242,-3.15006 -1.006611,-0.75595 -1.510579,-0.75595 -2.01534,-0.88168 -0.504762,-0.12573 -1.008733,-0.37771 -1.385915,-0.50397 -0.377182,-0.12626 -0.629166,-0.12626 -0.882737,-0.37877 -0.25357,-0.25251 -0.505555,-0.75648 -0.882739,-1.13366 -0.377183,-0.37718 -0.881149,-0.62917 -1.25992,-1.00794 -0.378772,-0.37877 -0.630755,-0.88274 -1.260239,-1.51201 -0.629484,-0.62928 -1.637418,-1.38523 -2.267855,-2.14213 -0.630436,-0.7569 -0.882421,-1.51285 -1.132818,-1.89004 -0.250398,-0.37718 -0.502382,-0.37718 -0.629697,-0.50449 -0.127314,-0.12732 -0.127314,-0.37931 -0.253305,-0.62997 -0.125992,-0.25066 -0.377977,-0.50264 -0.630227,-1.00741 -0.252249,-0.50476 -0.504234,-1.26071 -0.75463,-1.63789 -0.250396,-0.37718 -0.50238,-0.37718 -0.629695,-0.63049 -0.127315,-0.25331 -0.127315,-0.75728 -0.253571,-1.26045 -0.126256,-0.50317 -0.378241,-1.00714 -0.503969,-1.6379 -0.125727,-0.63075 -0.125727,-1.3867 -0.251982,-2.01587 -0.126256,-0.62916 -0.378239,-1.13313 -0.503968,-1.51191 -0.125728,-0.37877 -0.125728,-0.63075 -0.251721,-0.88141 -0.125993,-0.25066 -0.377976,-0.50265 -0.503968,-0.88195 -0.125993,-0.3793 -0.125993,-0.88326 -0.251984,-1.25991 -0.125992,-0.37666 -0.377977,-0.62864 -0.503969,-1.6379 -0.125992,-1.00926 -0.125992,-2.77315 -0.250661,-3.65377 -0.124669,-0.88062 -0.376653,-0.88062 -0.503968,-1.00793 -0.127315,-0.12732 -0.127315,-0.37931 -0.127315,-0.75728 0,-0.37798 0,-0.88195 0,-1.38327"
       id="path42"
       inkscape:connector-curvature="0"
       inkscape:path-effect="#path-effect44"
       inkscape:original-d="m 145.14286,88.357143 c 0.25463,-1.010584 0.50661,-2.01852 0.75595,-3.023809 0.003,-0.758601 0.003,-1.514552 0,-2.267858 0.003,-2.018519 0.003,-4.034393 0,-6.047621 0.003,-1.514549 0.003,-3.026455 0,-4.535712 -0.24934,-0.506616 -0.50132,-1.010584 -0.75595,-1.511906 0.003,-0.506614 0.003,-1.010581 0,-1.511903 -0.24934,-0.254633 -0.50133,-0.506616 -0.75596,-0.755954 0.003,-0.25463 0.003,-0.506614 0,-0.755952 -0.24934,-0.0026 -0.50132,-0.0026 -0.75595,0 0.003,-0.758598 0.003,-1.514552 0,-2.267858 -0.24934,-0.506613 -0.50132,-1.010581 -0.75595,-1.511903 -0.50132,-0.506616 -1.00529,-1.010584 -1.51191,-1.511906 0.003,-0.758597 0.003,-1.514551 0,-2.267857 -0.50132,-0.25463 -1.00529,-0.506614 -1.5119,-0.755952 0.003,-0.25463 0.003,-0.506613 0,-0.755951 -0.50132,-0.254633 -1.00529,-0.506617 -1.51191,-0.755955 0.003,-0.758597 0.003,-1.514549 0,-2.267857 -0.7533,-0.506614 -1.50925,-1.010582 -2.26785,-1.511903 0.003,-0.506614 0.003,-1.010584 0,-1.511906 -0.50133,-0.25463 -1.00529,-0.506614 -1.51191,-0.755952 -0.24934,-0.506613 -0.50132,-1.010581 -0.75595,-1.511906 -0.24934,-0.0026 -0.50132,-0.0026 -0.75595,0 0.003,-0.758597 0.003,-1.514549 0,-2.267855 -0.75331,-0.506616 -1.50926,-1.010584 -2.26786,-1.511906 0.003,-0.254629 0.003,-0.506613 0,-0.755951 -0.24934,-0.0026 -0.50132,-0.0026 -0.75595,0 -0.24934,-0.25463 -0.50132,-0.506616 -0.75595,-0.755954 -0.50133,-0.25463 -1.0053,-0.506614 -1.51191,-0.755952 -0.24934,-0.25463 -0.50132,-0.506614 -0.75595,-0.755952 -0.24934,-0.0026 -0.50132,-0.0026 -0.75595,0 -0.75331,-0.758597 -1.50926,-1.514551 -2.26786,-2.267857 -0.50132,-0.0026 -1.00529,-0.0026 -1.51191,0 -0.24933,-0.25463 -0.50132,-0.506614 -0.75595,-0.755952 -0.50132,-0.506616 -1.00529,-1.010584 -1.5119,-1.511906 -0.24934,-0.0026 -0.50133,-0.0026 -0.75596,0 -1.00529,-0.506613 -2.01322,-1.010581 -3.0238,-1.511903 -0.75331,-0.254632 -1.50926,-0.506616 -2.26786,-0.755954 -0.75331,-0.506614 -1.50926,-1.010581 -2.26786,-1.511903 -1.25727,-0.0026 -2.5172,-0.0026 -3.77976,0 -0.50132,-0.25463 -1.00529,-0.506617 -1.51191,-0.755955 -0.24933,-0.0026 -0.50132,-0.0026 -0.75595,0 -1.50926,-0.0026 -3.02116,-0.0026 -4.53571,0 -0.50132,-0.254629 -1.00529,-0.506613 -1.511906,-0.755951 -0.501322,-0.0026 -1.005293,-0.0026 -1.511906,0 -1.509257,-0.0026 -3.021163,-0.0026 -4.535715,0 -2.517196,-0.0026 -5.037034,-0.0026 -7.559522,0 -1.005292,-0.0026 -2.013227,-0.0026 -3.023811,0 -0.249338,0.249338 -0.501322,0.501322 -0.755952,0.755951 -0.501322,-0.0026 -1.00529,-0.0026 -1.511903,0 -0.249341,0.249338 -0.501325,0.501325 -0.755954,0.755955 -0.249338,-0.0026 -0.501322,-0.0026 -0.755952,0 -0.501322,0.249338 -1.00529,0.501322 -1.511906,0.755951 -0.249338,-0.0026 -0.501322,-0.0026 -0.755951,0 0.0026,0.249338 0.0026,0.501322 0,0.755952 -0.753306,0.501322 -1.509258,1.005292 -2.267858,1.511906 -0.501322,0.501322 -1.00529,1.005289 -1.511903,1.511903 -0.249338,-0.0026 -0.501322,-0.0026 -0.755954,0 -0.753306,0.249338 -1.509258,0.501325 -2.267855,0.755954 -0.753309,0.501322 -1.50926,1.00529 -2.267858,1.511904 -0.753308,0.249338 -1.50926,0.501321 -2.267857,0.755954 -0.249338,0.501322 -0.501322,1.005289 -0.755952,1.511903 -0.501324,0.249338 -1.005292,0.501322 -1.511906,0.755952 -0.501322,0.249338 -1.005289,0.501324 -1.511906,0.755954 0.0026,0.501322 0.0026,1.00529 0,1.511903 -0.249338,-0.0026 -0.501322,-0.0026 -0.755951,0 -0.249338,0.249338 -0.501322,0.501322 -0.755952,0.755954 -0.249338,0.249338 -0.501322,0.501322 -0.755952,0.755952 -0.24934,0.249338 -0.501324,0.501322 -0.755954,0.755952 -0.501322,-0.0026 -1.005289,-0.0026 -1.511903,0 0.0026,0.249338 0.0026,0.501322 0,0.755951 -0.501322,0.501325 -1.005292,1.005293 -1.511906,1.511906 -0.501322,1.257274 -1.00529,2.517196 -1.511903,3.779761 -0.249341,0.249338 -0.501325,0.501324 -0.755954,0.755954 0.0026,0.501322 0.0026,1.00529 0,1.511903 0.0026,0.249338 0.0026,0.501322 0,0.755955 -0.249338,0.249338 -0.501322,0.501321 -0.755952,0.755951 -0.249338,0.753306 -0.501322,1.509258 -0.755952,2.267858 -0.501322,1.005289 -1.005292,2.013225 -1.511905,3.023809 -0.249339,1.257273 -0.501322,2.517195 -0.755952,3.779761 -0.249338,0.249338 -0.501322,0.501321 -0.755952,0.755954 0.0026,1.005289 0.0026,2.013225 0,3.023809 -0.24934,0.501322 -0.501324,1.00529 -0.755954,1.511903 0.0026,1.257276 0.0026,2.517196 0,3.779763 -0.249338,0.501322 -0.501322,1.00529 -0.755952,1.511904 0.0026,0.501322 0.0026,1.005292 0,1.511906 -0.249338,0.501321 -0.501322,1.005289 -0.755951,1.511903 0.0026,1.257276 0.0026,2.517195 0,3.779763 -0.249338,0.501322 -0.501322,1.00529 -0.755954,1.511903 0.0026,0.249338 0.0026,0.501325 0,0.755955 0.0026,0.501322 0.0026,1.005289 0,1.511903 -0.249339,1.005292 -0.501322,2.013228 -0.755952,3.023809 0.0026,0.501325 0.0026,1.005292 0,1.511906 0.0026,0.753306 0.0026,1.50926 0,2.267857 0.0026,1.761242 0.0026,3.525132 0,5.291662 0.0026,1.76125 0.0026,3.52514 0,5.29167 0.0026,1.00529 0.0026,2.01323 0,3.02381 0.506613,1.25727 1.010584,2.5172 1.511906,3.77976 0.254629,0.24934 0.506613,0.50133 0.755951,0.75596 0.0026,1.00529 0.0026,2.01322 0,3.0238 0.25463,-0.003 0.506614,-0.003 0.755952,0 0.0026,0.24934 0.0026,0.50133 0,0.75596 0.506614,0.50132 1.010584,1.00529 1.511906,1.5119 0.0026,0.50132 0.0026,1.00529 0,1.51191 0.25463,0.24933 0.506613,0.50132 0.755952,0.75595 0.506613,0.50132 1.010583,1.00529 1.511905,1.5119 0.25463,0.75331 0.506614,1.50926 0.755952,2.26786 0.758597,1.00529 1.514552,2.01323 2.267857,3.02381 0.506614,0.75331 1.010582,1.50926 1.511904,2.26786 0.254632,0.50132 0.506616,1.00529 0.755954,1.5119 0.0026,0.24934 0.0026,0.50132 0,0.75595 0.506614,-0.003 1.010581,-0.003 1.511903,0 0.506614,1.00529 1.010584,2.01323 1.511906,3.02381 0.0026,0.50133 0.0026,1.00529 0,1.51191 0.25463,-0.003 0.506614,-0.003 0.755952,0 0.254629,0.24934 0.506613,0.50132 0.755951,0.75595 0.506617,1.00529 1.010584,2.01323 1.511906,3.02381 0.506614,0.24934 1.010582,0.50132 1.511906,0.75595 1.262565,1.25728 2.522487,2.5172 3.779761,3.77977 0.25463,-0.003 0.506613,-0.003 0.755951,0 0.758601,0.50132 1.514552,1.00528 2.267858,1.5119 0.25463,-0.003 0.506613,-0.003 0.755952,0 0.506616,0.24934 1.010583,0.50132 1.511905,0.75595 0.25463,0.24934 0.506614,0.50132 0.755952,0.75595 0.25463,-0.003 0.506614,-0.003 0.755954,0 0.25463,0.24934 0.506614,0.50133 0.755952,0.75596 1.262565,-0.003 2.522487,-0.003 3.779761,0 1.262567,0.24933 2.522487,0.50132 3.779763,0.75595 0.506614,-0.003 1.010581,-0.003 1.511903,0 1.262568,-0.003 2.522487,-0.003 3.779764,0 0.254629,-0.003 0.506613,-0.003 0.755951,0 0.25463,-0.003 0.506614,-0.003 0.755952,0 0.0026,0.24934 0.0026,0.50132 0,0.75595 0.25463,-0.003 0.506613,-0.003 0.755954,0 0.25463,-0.003 0.506614,-0.003 0.755952,0 1.262565,-0.003 2.522487,-0.003 3.77976,0 0.758601,-0.003 1.514552,-0.003 2.267858,0 0.506613,0.24934 1.010584,0.50132 1.511906,0.75595 1.262566,0.24934 2.522486,0.50133 3.779756,0.75596 0.25463,0.50132 0.50662,1.00529 0.75596,1.5119 0.7586,-0.003 1.51455,-0.003 2.26785,0 0.25463,0.50132 0.50662,1.00529 0.75596,1.5119 0.7586,0.24934 1.51455,0.50133 2.26785,0.75596 0.50662,0.24934 1.01059,0.50132 1.51191,0.75595 0.50661,0.50132 1.01058,1.00529 1.5119,1.51191 0.25463,-0.003 0.50662,-0.003 0.75596,0 0.25463,0.24933 0.50661,0.50132 0.75595,0.75595 0.25463,-0.003 0.50661,-0.003 0.75595,0 0.25463,0.24934 0.50662,0.50132 0.75595,0.75595 0.25463,-0.003 0.50662,-0.003 0.75596,0 0.50661,0.24934 1.01058,0.50132 1.5119,0.75595 0.25463,-0.003 0.50661,-0.003 0.75595,0 0.25463,0.24934 0.50662,0.50133 0.75595,0.75596 0.7586,0.24933 1.51456,0.50132 2.26786,0.75595 1.01058,0.7533 2.01852,1.50926 3.02381,2.26785 0.50661,-0.003 1.01058,-0.003 1.51191,0 0.003,0.50133 0.003,1.00529 0,1.51191 0.50661,-0.003 1.01058,-0.003 1.5119,0 0.25463,-0.003 0.50661,-0.003 0.75595,0 0.003,0.24934 0.003,0.50132 0,0.75595 0.25463,0.24934 0.50662,0.50132 0.75596,0.75595 0.50661,0.50133 1.01058,1.00529 1.5119,1.51191 0.50662,0.24934 1.01058,0.50132 1.51191,0.75595 0.25462,0.75331 0.50661,1.50926 0.75595,2.26786 0.25463,0.24934 0.50661,0.50132 0.75595,0.75595 0.50661,1.00529 1.01058,2.01323 1.5119,3.02381 1.01059,1.00529 2.01852,2.01323 3.02381,3.02381 0.003,0.24934 0.003,0.50132 0,0.75595 0.25463,0.50132 0.50662,1.00529 0.75596,1.51191 0.50661,0.24933 1.01058,0.50132 1.5119,0.75595 0.003,1.00529 0.003,2.01323 0,3.02381 0.25463,0.24934 0.50661,0.50132 0.75595,0.75595 0.003,1.25727 0.003,2.5172 0,3.77976 0.25463,0.50132 0.50662,1.00529 0.75596,1.51191 0.25463,0.7533 0.50661,1.50925 0.75595,2.26785 0.50661,2.01323 1.01058,4.0291 1.5119,6.04762 0.25463,0.75331 0.50662,1.50926 0.75596,2.26786 0.003,0.24934 0.003,0.50132 0,0.75595 0.25463,0.50132 0.50661,1.00529 0.75595,1.51191 0.003,1.25727 0.003,2.51719 0,3.77976 0.003,0.24934 0.003,0.50132 0,0.75595 0.25463,0.50132 0.50661,1.00529 0.75595,1.51191 0.003,0.24933 0.003,0.50132 0,0.75595 0.003,0.50132 0.003,1.00529 0,1.5119 0.003,1.00529 0.003,2.01323 0,3.02381 0.003,3.27315 0.003,6.54894 0,9.82738 0.003,2.26522 0.003,4.53307 0,6.80357 0.003,0.75331 0.003,1.50926 0,2.26786 -0.75331,0.75331 -1.50926,1.50926 -2.26786,2.26786 0.003,0.50132 0.003,1.00529 0,1.5119 -0.24934,0.50133 -0.50132,1.00529 -0.75595,1.51191 -0.24934,0.50132 -0.50132,1.00529 -0.75595,1.5119 -0.24934,0.24934 -0.50132,0.50133 -0.75595,0.75596 0.003,0.50132 0.003,1.00529 0,1.5119 -0.50133,0.50132 -1.0053,1.00529 -1.51191,1.5119 -0.24934,0.50133 -0.50132,1.00529 -0.75595,1.51191 -0.50132,0.50132 -1.00529,1.00529 -1.51191,1.5119 -0.7533,0.75331 -1.50925,1.50926 -2.26785,2.26786 -0.24934,0.24934 -0.50133,0.50132 -0.75596,0.75595 0.003,0.24934 0.003,0.50133 0,0.75596 -0.24933,-0.003 -0.50132,-0.003 -0.75595,0 0.003,0.24934 0.003,0.50132 0,0.75595 -0.50132,0.24934 -1.00529,0.50132 -1.5119,0.75595 -0.50133,0.50132 -1.00529,1.00529 -1.51191,1.51191 -0.24933,-0.003 -0.50132,-0.003 -0.75595,0 -0.50132,0.24933 -1.00529,0.50132 -1.5119,0.75595 -0.24934,-0.003 -0.50133,-0.003 -0.75596,0 -0.24934,0.24934 -0.50132,0.50132 -0.75595,0.75595 -0.24934,-0.003 -0.50132,-0.003 -0.75595,0 0.003,0.24934 0.003,0.50132 0,0.75595 -0.50132,-0.003 -1.00529,-0.003 -1.51191,0 -0.7533,0.24934 -1.50925,0.50133 -2.26785,0.75596 -0.75331,-0.003 -1.50926,-0.003 -2.26786,0 -0.24934,0.24933 -0.50132,0.50132 -0.75595,0.75595 -1.76125,-0.003 -3.52514,-0.003 -5.29167,0 -4.0291,-0.003 -8.06085,-0.003 -12.09524,0 -5.541002,-0.003 -11.084652,-0.003 -16.630949,0 -1.50926,-0.003 -3.021165,-0.003 -4.535715,0 -0.753305,-0.003 -1.50926,-0.003 -2.267857,0 -0.249338,-0.003 -0.501322,-0.003 -0.755952,0 -0.249338,-0.25463 -0.501322,-0.50662 -0.755954,-0.75595 -0.501322,-0.25463 -1.00529,-0.50662 -1.511903,-0.75596 -0.753306,-0.25463 -1.50926,-0.50661 -2.267858,-0.75595 -1.50926,-1.51455 -3.021163,-3.02646 -4.535715,-4.53571 -0.501321,-0.003 -1.005289,-0.003 -1.511903,0 -0.501322,-0.25463 -1.005292,-0.50662 -1.511906,-0.75596 -0.249338,-0.003 -0.501322,-0.003 -0.755951,0 -0.249338,-0.50661 -0.501322,-1.01058 -0.755952,-1.5119 -0.501324,-0.25463 -1.005292,-0.50661 -1.511906,-0.75595 -0.249338,-0.50662 -0.501322,-1.01059 -0.755951,-1.51191 -1.005293,-0.7586 -2.013228,-1.51455 -3.02381,-2.26786 -0.24934,-0.75859 -0.501324,-1.51454 -0.755954,-2.26785 -0.249338,-0.003 -0.501322,-0.003 -0.755951,0 0.0026,-0.25463 0.0026,-0.50662 0,-0.75595 -0.249338,-0.25463 -0.501322,-0.50662 -0.755952,-0.75596 -0.249338,-0.7586 -0.501322,-1.51455 -0.755954,-2.26785 -0.249338,-0.003 -0.501322,-0.003 -0.755952,0 0.0026,-0.50662 0.0026,-1.01059 0,-1.51191 -0.249338,-0.50661 -0.501322,-1.01058 -0.755952,-1.5119 0.0026,-0.7586 0.0026,-1.51455 0,-2.26786 -0.249338,-0.50661 -0.501321,-1.01058 -0.755951,-1.51191 0.0026,-0.25463 0.0026,-0.50661 0,-0.75595 -0.249341,-0.25463 -0.501325,-0.50661 -0.755954,-0.75595 0.0026,-0.50662 0.0026,-1.01058 0,-1.5119 -0.249338,-0.25463 -0.501322,-0.50662 -0.755952,-0.75596 0.0026,-1.76653 0.0026,-3.53042 0,-5.29166 -0.249338,-0.003 -0.501322,-0.003 -0.755952,0 0.0026,-0.25463 0.0026,-0.50662 0,-0.75595 0.0026,-0.50662 0.0026,-1.01059 0,-1.51191" />
  </g>
</svg>
